<svg width="723" height="432" viewBox="0 0 723 432" fill="none" xmlns="http://www.w3.org/2000/svg">
<path d="M254.943 123.086H275.868C284.61 123.086 291.089 125.876 295.305 131.456C299.521 137.036 301.629 145.065 301.629 155.543C301.629 166.021 299.521 174.05 295.305 179.63C291.089 185.21 284.61 188 275.868 188H254.943V123.086ZM274.938 177.026C279.092 177.026 282.13 175.693 284.052 173.027C285.974 170.361 286.935 166.486 286.935 161.402V149.591C286.935 144.569 285.974 140.725 284.052 138.059C282.13 135.393 279.092 134.06 274.938 134.06H268.707V177.026H274.938Z" fill="#333333"/>
<path d="M340.095 188V123.086H381.573V134.525H354.045V149.405H380.643V160.844H354.045V176.561H381.573V188H340.095Z" fill="#333333"/>
<path d="M443.195 189.116C437.739 189.116 432.996 188.217 428.966 186.419C424.936 184.621 421.681 182.172 419.201 179.072L427.292 170.144C429.648 172.748 432.221 174.67 435.011 175.91C437.863 177.15 440.746 177.77 443.66 177.77C447.008 177.77 449.55 177.026 451.286 175.538C453.022 174.05 453.89 171.911 453.89 169.121C453.89 166.827 453.208 165.091 451.844 163.913C450.542 162.735 448.31 161.898 445.148 161.402L438.359 160.286C432.531 159.294 428.315 157.155 425.711 153.869C423.107 150.521 421.805 146.46 421.805 141.686C421.805 135.424 423.851 130.588 427.943 127.178C432.035 123.706 437.77 121.97 445.148 121.97C450.17 121.97 454.541 122.745 458.261 124.295C461.981 125.845 464.988 127.953 467.282 130.619L459.377 139.454C457.641 137.532 455.595 136.044 453.239 134.99C450.883 133.874 448.217 133.316 445.241 133.316C438.979 133.316 435.848 135.889 435.848 141.035C435.848 143.267 436.53 144.941 437.894 146.057C439.32 147.173 441.614 148.01 444.776 148.568L451.565 149.777C456.835 150.707 460.896 152.691 463.748 155.729C466.6 158.767 468.026 162.859 468.026 168.005C468.026 171.043 467.499 173.864 466.445 176.468C465.391 179.01 463.81 181.242 461.702 183.164C459.594 185.024 456.99 186.481 453.89 187.535C450.852 188.589 447.287 189.116 443.195 189.116Z" fill="#333333"/>
<path d="M506.957 188V177.677H520.907V133.409H506.957V123.086H548.807V133.409H534.857V177.677H548.807V188H506.957Z" fill="#333333"/>
<path d="M621.869 178.793H621.032C620.474 180.157 619.792 181.459 618.986 182.699C618.18 183.939 617.188 185.055 616.01 186.047C614.832 186.977 613.437 187.721 611.825 188.279C610.275 188.837 608.508 189.116 606.524 189.116C603.362 189.116 600.541 188.372 598.061 186.884C595.643 185.396 593.597 183.226 591.923 180.374C590.249 177.522 588.978 174.05 588.11 169.958C587.304 165.866 586.901 161.247 586.901 156.101C586.901 145.065 588.916 136.633 592.946 130.805C596.976 124.915 603.207 121.97 611.639 121.97C614.987 121.97 617.932 122.435 620.474 123.365C623.016 124.233 625.186 125.504 626.984 127.178C628.844 128.79 630.363 130.743 631.541 133.037C632.719 135.331 633.649 137.873 634.331 140.663L621.311 143.825C620.939 142.461 620.505 141.159 620.009 139.919C619.575 138.617 618.986 137.47 618.242 136.478C617.498 135.486 616.568 134.711 615.452 134.153C614.336 133.533 612.972 133.223 611.36 133.223C607.826 133.223 605.315 134.68 603.827 137.594C602.401 140.508 601.688 144.6 601.688 149.87V160.472C601.688 165.742 602.463 169.958 604.013 173.12C605.625 176.282 608.446 177.863 612.476 177.863C615.638 177.863 617.994 176.933 619.544 175.073C621.094 173.213 621.869 170.826 621.869 167.912V163.169H610.802V153.311H634.331V188H621.869V178.793Z" fill="#333333"/>
<path d="M685.909 144.848H684.886V188H672.982V123.086H689.722L704.509 166.238H705.532V123.086H717.436V188H700.696L685.909 144.848Z" fill="#333333"/>
<path d="M32.8749 255.525L32.8749 309H18.9249L18.9249 255.525H0.231934L0.231934 244.086H51.5679V255.525H32.8749Z" fill="#333333"/>
<path d="M109.564 310.116C100.884 310.116 94.4666 307.171 90.3126 301.281C86.2206 295.391 84.1746 287.145 84.1746 276.543C84.1746 265.941 86.2206 257.695 90.3126 251.805C94.4666 245.915 100.884 242.97 109.564 242.97C118.244 242.97 124.63 245.915 128.722 251.805C132.876 257.695 134.953 265.941 134.953 276.543C134.953 287.145 132.876 295.391 128.722 301.281C124.63 307.171 118.244 310.116 109.564 310.116ZM109.564 298.863C113.532 298.863 116.26 297.406 117.748 294.492C119.298 291.516 120.073 287.393 120.073 282.123V270.87C120.073 265.662 119.298 261.601 117.748 258.687C116.26 255.711 113.532 254.223 109.564 254.223C105.596 254.223 102.837 255.711 101.287 258.687C99.7986 261.601 99.0546 265.662 99.0546 270.87V282.216C99.0546 287.424 99.7986 291.516 101.287 294.492C102.837 297.406 105.596 298.863 109.564 298.863Z" fill="#333333"/>
<path d="M193.227 310.116C184.547 310.116 178.13 307.171 173.976 301.281C169.884 295.391 167.838 287.145 167.838 276.543C167.838 265.941 169.884 257.695 173.976 251.805C178.13 245.915 184.547 242.97 193.227 242.97C201.907 242.97 208.293 245.915 212.385 251.805C216.539 257.695 218.616 265.941 218.616 276.543C218.616 287.145 216.539 295.391 212.385 301.281C208.293 307.171 201.907 310.116 193.227 310.116ZM193.227 298.863C197.195 298.863 199.923 297.406 201.411 294.492C202.961 291.516 203.736 287.393 203.736 282.123V270.87C203.736 265.662 202.961 261.601 201.411 258.687C199.923 255.711 197.195 254.223 193.227 254.223C189.259 254.223 186.5 255.711 184.95 258.687C183.462 261.601 182.718 265.662 182.718 270.87V282.216C182.718 287.424 183.462 291.516 184.95 294.492C186.5 297.406 189.259 298.863 193.227 298.863Z" fill="#333333"/>
<path d="M257.547 309L257.547 244.086H271.59V297.561H299.49L299.49 309L257.547 309Z" fill="#333333"/>
<path d="M359.532 310.116C354.076 310.116 349.333 309.217 345.303 307.419C341.273 305.621 338.018 303.172 335.538 300.072L343.629 291.144C345.985 293.748 348.558 295.67 351.348 296.91C354.2 298.15 357.083 298.77 359.997 298.77C363.345 298.77 365.887 298.026 367.623 296.538C369.359 295.05 370.227 292.911 370.227 290.121C370.227 287.827 369.545 286.091 368.181 284.913C366.879 283.735 364.647 282.898 361.485 282.402L354.696 281.286C348.868 280.294 344.652 278.155 342.048 274.869C339.444 271.521 338.142 267.46 338.142 262.686C338.142 256.424 340.188 251.588 344.28 248.178C348.372 244.706 354.107 242.97 361.485 242.97C366.507 242.97 370.878 243.745 374.598 245.295C378.318 246.845 381.325 248.953 383.619 251.619L375.714 260.454C373.978 258.532 371.932 257.044 369.576 255.99C367.22 254.874 364.554 254.316 361.578 254.316C355.316 254.316 352.185 256.889 352.185 262.035C352.185 264.267 352.867 265.941 354.231 267.057C355.657 268.173 357.951 269.01 361.113 269.568L367.902 270.777C373.172 271.707 377.233 273.691 380.085 276.729C382.937 279.767 384.363 283.859 384.363 289.005C384.363 292.043 383.836 294.864 382.782 297.468C381.728 300.01 380.147 302.242 378.039 304.164C375.931 306.024 373.327 307.481 370.227 308.535C367.189 309.589 363.624 310.116 359.532 310.116Z" fill="#333333"/>
<path d="M275.868 431.116C270.412 431.116 265.669 430.217 261.639 428.419C257.609 426.621 254.354 424.172 251.874 421.072L259.965 412.144C262.321 414.748 264.894 416.67 267.684 417.91C270.536 419.15 273.419 419.77 276.333 419.77C279.681 419.77 282.223 419.026 283.959 417.538C285.695 416.05 286.563 413.911 286.563 411.121C286.563 408.827 285.881 407.091 284.517 405.913C283.215 404.735 280.983 403.898 277.821 403.402L271.032 402.286C265.204 401.294 260.988 399.155 258.384 395.869C255.78 392.521 254.478 388.46 254.478 383.686C254.478 377.424 256.524 372.588 260.616 369.178C264.708 365.706 270.443 363.97 277.821 363.97C282.843 363.97 287.214 364.745 290.934 366.295C294.654 367.845 297.661 369.953 299.955 372.619L292.05 381.454C290.314 379.532 288.268 378.044 285.912 376.99C283.556 375.874 280.89 375.316 277.914 375.316C271.652 375.316 268.521 377.889 268.521 383.035C268.521 385.267 269.203 386.941 270.567 388.057C271.993 389.173 274.287 390.01 277.449 390.568L284.238 391.777C289.508 392.707 293.569 394.691 296.421 397.729C299.273 400.767 300.699 404.859 300.699 410.005C300.699 413.043 300.172 415.864 299.118 418.468C298.064 421.01 296.483 423.242 294.375 425.164C292.267 427.024 289.663 428.481 286.563 429.535C283.525 430.589 279.96 431.116 275.868 431.116Z" fill="#FF4E4E"/>
<path d="M351.72 365.086V406.192C351.72 408.238 351.782 410.129 351.906 411.865C352.092 413.539 352.464 414.965 353.022 416.143C353.642 417.321 354.541 418.251 355.719 418.933C356.897 419.553 358.509 419.863 360.555 419.863C362.601 419.863 364.213 419.553 365.391 418.933C366.569 418.251 367.437 417.321 367.995 416.143C368.615 414.965 368.987 413.539 369.111 411.865C369.297 410.129 369.39 408.238 369.39 406.192V365.086H383.34V404.332C383.34 408.796 383.03 412.702 382.41 416.05C381.852 419.398 380.736 422.188 379.062 424.42C377.388 426.652 375.063 428.326 372.087 429.442C369.111 430.558 365.267 431.116 360.555 431.116C355.843 431.116 351.999 430.558 349.023 429.442C346.047 428.326 343.722 426.652 342.048 424.42C340.374 422.188 339.227 419.398 338.607 416.05C338.049 412.702 337.77 408.796 337.77 404.332V365.086H351.72Z" fill="#FF4E4E"/>
<path d="M437.15 430H423.386V365.086L448.496 365.086C451.658 365.086 454.479 365.582 456.959 366.574C459.439 367.504 461.516 368.868 463.19 370.666C464.926 372.464 466.228 374.634 467.096 377.176C467.964 379.718 468.398 382.57 468.398 385.732C468.398 390.32 467.406 394.257 465.422 397.543C463.438 400.829 460.617 402.999 456.959 404.053L469.7 430H454.448L443.567 405.913H437.15V430ZM445.148 395.125C448.434 395.125 450.697 394.505 451.937 393.265C453.239 392.025 453.89 389.979 453.89 387.127V384.337C453.89 381.485 453.239 379.439 451.937 378.199C450.697 376.959 448.434 376.339 445.148 376.339H437.15V395.125L445.148 395.125Z" fill="#FF4E4E"/>
<path d="M518.024 430L500.819 365.086H516.35L523.976 398.101L527.789 416.794H528.533L532.439 398.101L540.158 365.086H554.945L537.74 430H518.024Z" fill="#FF4E4E"/>
<path d="M591.086 430V365.086H632.564V376.525H605.036V391.405H631.634V402.844H605.036V418.561H632.564V430H591.086Z" fill="#FF4E4E"/>
<path d="M688.234 430V407.029L667.681 365.086H683.212L690.094 380.152L695.116 392.893H695.86L700.882 380.152L707.764 365.086H722.737L702.184 407.029V430H688.234Z" fill="#FF4E4E"/>
<path d="M350.418 61.4199L340.746 55.0029L351.348 41.0529L335.445 35.6589L339.072 24.9639L354.603 30.6369V14.1759L366.507 14.1759V30.6369L382.038 24.9639L385.665 35.6589L369.762 41.0529L380.364 55.0029L370.692 61.4199L360.555 47.5629L350.418 61.4199Z" fill="#EEEEEE"/>
<path d="M444.218 52.4919C441.614 52.4919 439.382 52.1819 437.522 51.5619C435.724 50.9419 434.236 50.1049 433.058 49.0509C431.942 47.9349 431.136 46.6329 430.64 45.1449C430.144 43.6569 429.896 42.0449 429.896 40.3089V37.1469C429.896 35.4109 430.144 33.7989 430.64 32.3109C431.136 30.8229 431.942 29.5519 433.058 28.4979C434.236 27.3819 435.724 26.5139 437.522 25.8939C439.382 25.2739 441.614 24.9639 444.218 24.9639C446.822 24.9639 449.023 25.2739 450.821 25.8939C452.681 26.5139 454.169 27.3819 455.285 28.4979C456.463 29.5519 457.3 30.8229 457.796 32.3109C458.292 33.7989 458.54 35.4109 458.54 37.1469V40.3089C458.54 42.0449 458.292 43.6569 457.796 45.1449C457.3 46.6329 456.463 47.9349 455.285 49.0509C454.169 50.1049 452.681 50.9419 450.821 51.5619C449.023 52.1819 446.822 52.4919 444.218 52.4919Z" fill="#EEEEEE"/>
<path d="M532.811 56.7699L525.371 49.3299L530.951 43.7499L535.043 40.2159L534.95 39.8439L527.51 40.2159H502.586V28.8699L527.51 28.8699L534.95 29.2419L535.043 28.8699L530.951 25.3359L525.371 19.7559L532.811 12.3159L555.038 34.5429L532.811 56.7699Z" fill="#EEEEEE"/>
<path d="M611.546 46.5399L598.061 60.0249L590.156 52.1199L603.641 38.6349L590.156 25.1499L598.061 17.2449L611.546 30.7299L625.031 17.2449L632.936 25.1499L619.451 38.6349L632.936 52.1199L625.031 60.0249L611.546 46.5399Z" fill="#EEEEEE"/>
<path d="M673.075 33.4269V22.4529L717.343 22.4529V33.4269L673.075 33.4269ZM673.075 54.8169V43.8429L717.343 43.8429V54.8169L673.075 54.8169Z" fill="#EEEEEE"/>
<path d="M25.9 173.492C23.296 173.492 21.064 173.182 19.204 172.562C17.406 171.942 15.918 171.105 14.74 170.051C13.624 168.935 12.818 167.633 12.322 166.145C11.826 164.657 11.578 163.045 11.578 161.309V158.147C11.578 156.411 11.826 154.799 12.322 153.311C12.818 151.823 13.624 150.552 14.74 149.498C15.918 148.382 17.406 147.514 19.204 146.894C21.064 146.274 23.296 145.964 25.9 145.964C28.504 145.964 30.705 146.274 32.503 146.894C34.363 147.514 35.851 148.382 36.967 149.498C38.145 150.552 38.982 151.823 39.478 153.311C39.974 154.799 40.222 156.411 40.222 158.147V161.309C40.222 163.045 39.974 164.657 39.478 166.145C38.982 167.633 38.145 168.935 36.967 170.051C35.851 171.105 34.363 171.942 32.503 172.562C30.705 173.182 28.504 173.492 25.9 173.492Z" fill="#EEEEEE"/>
<path d="M114.493 177.77L107.053 170.33L112.633 164.75L116.725 161.216L116.632 160.844L109.192 161.216L84.2677 161.216V149.87L109.192 149.87L116.632 150.242L116.725 149.87L112.633 146.336L107.053 140.756L114.493 133.316L136.72 155.543L114.493 177.77Z" fill="#EEEEEE"/>
<path d="M183.09 182.42L173.418 176.003L184.02 162.053L168.117 156.659L171.744 145.964L187.275 151.637V135.176H199.179V151.637L214.71 145.964L218.337 156.659L202.434 162.053L213.036 176.003L203.364 182.42L193.227 168.563L183.09 182.42Z" fill="#EEEEEE"/>
<path d="M449.147 298.77L441.707 291.33L447.287 285.75L451.379 282.216L451.286 281.844L443.846 282.216H418.922V270.87H443.846L451.286 271.242L451.379 270.87L447.287 267.336L441.707 261.756L449.147 254.316L471.374 276.543L449.147 298.77Z" fill="#EEEEEE"/>
<path d="M527.882 288.54L514.397 302.025L506.492 294.12L519.977 280.635L506.492 267.15L514.397 259.245L527.882 272.73L541.367 259.245L549.272 267.15L535.787 280.635L549.272 294.12L541.367 302.025L527.882 288.54Z" fill="#EEEEEE"/>
<path d="M589.412 275.427V264.453H633.68V275.427H589.412ZM589.412 296.817V285.843H633.68V296.817H589.412Z" fill="#EEEEEE"/>
<path d="M685.072 303.42L675.4 297.003L686.002 283.053L670.099 277.659L673.726 266.964L689.257 272.637V256.176H701.161V272.637L716.692 266.964L720.319 277.659L704.416 283.053L715.018 297.003L705.346 303.42L695.209 289.563L685.072 303.42Z" fill="#EEEEEE"/>
<path d="M30.829 419.77L23.389 412.33L28.969 406.75L33.061 403.216L32.968 402.844L25.528 403.216H0.604004L0.604004 391.87H25.528L32.968 392.242L33.061 391.87L28.969 388.336L23.389 382.756L30.829 375.316L53.056 397.543L30.829 419.77Z" fill="#EEEEEE"/>
<path d="M109.564 409.54L96.0787 423.025L88.1737 415.12L101.659 401.635L88.1737 388.15L96.0787 380.245L109.564 393.73L123.049 380.245L130.954 388.15L117.469 401.635L130.954 415.12L123.049 423.025L109.564 409.54Z" fill="#EEEEEE"/>
<path d="M171.093 396.427V385.453L215.361 385.453V396.427L171.093 396.427ZM171.093 417.817V406.843L215.361 406.843V417.817L171.093 417.817Z" fill="#EEEEEE"/>
<path d="M49.6147 67L2.92869 67L2.92869 54.259L23.3887 37.24C26.9227 34.202 29.4647 31.567 31.0147 29.335C32.5647 27.103 33.3397 24.747 33.3397 22.267V21.337C33.3397 18.609 32.5337 16.563 30.9217 15.199C29.3097 13.773 27.1397 13.06 24.4117 13.06C21.3117 13.06 18.9247 13.959 17.2507 15.757C15.5767 17.555 14.3987 19.694 13.7167 22.174L1.53369 17.524C2.27769 15.292 3.30069 13.184 4.60269 11.2C5.90469 9.15397 7.54769 7.38697 9.53169 5.89897C11.5777 4.41097 13.9337 3.23297 16.5997 2.36497C19.2657 1.43497 22.3347 0.969971 25.8067 0.969971C29.3407 0.969971 32.5027 1.46597 35.2927 2.45797C38.0827 3.44997 40.4387 4.81397 42.3607 6.54997C44.2827 8.28597 45.7397 10.363 46.7317 12.781C47.7237 15.137 48.2197 17.71 48.2197 20.5C48.2197 23.228 47.7547 25.739 46.8247 28.033C45.9567 30.265 44.7167 32.373 43.1047 34.357C41.5547 36.341 39.6947 38.263 37.5247 40.123C35.4167 41.983 33.1537 43.843 30.7357 45.703L18.3667 55.282L49.6147 55.282V67Z" fill="#FFC700"/>
<path d="M109.563 68.116C100.883 68.116 94.4664 65.171 90.3124 59.281C86.2204 53.391 84.1744 45.145 84.1744 34.543C84.1744 23.941 86.2204 15.695 90.3124 9.80497C94.4664 3.91497 100.883 0.969971 109.563 0.969971C118.243 0.969971 124.629 3.91497 128.721 9.80497C132.875 15.695 134.952 23.941 134.952 34.543C134.952 45.145 132.875 53.391 128.721 59.281C124.629 65.171 118.243 68.116 109.563 68.116ZM109.563 57.142C113.717 57.142 116.6 55.685 118.212 52.771C119.886 49.857 120.723 45.796 120.723 40.588V28.498C120.723 23.29 119.886 19.229 118.212 16.315C116.6 13.401 113.717 11.944 109.563 11.944C105.409 11.944 102.495 13.401 100.821 16.315C99.2094 19.229 98.4034 23.29 98.4034 28.498V40.588C98.4034 45.796 99.2094 49.857 100.821 52.771C102.495 55.685 105.409 57.142 109.563 57.142ZM109.563 40.03C107.393 40.03 105.874 39.596 105.006 38.728C104.2 37.86 103.797 36.806 103.797 35.566V33.52C103.797 32.28 104.2 31.226 105.006 30.358C105.874 29.49 107.393 29.056 109.563 29.056C111.733 29.056 113.221 29.49 114.027 30.358C114.895 31.226 115.329 32.28 115.329 33.52V35.566C115.329 36.806 114.895 37.86 114.027 38.728C113.221 39.596 111.733 40.03 109.563 40.03Z" fill="#FFC700"/>
<path d="M216.942 67H170.256V54.259L190.716 37.24C194.25 34.202 196.792 31.567 198.342 29.335C199.892 27.103 200.667 24.747 200.667 22.267V21.337C200.667 18.609 199.861 16.563 198.249 15.199C196.637 13.773 194.467 13.06 191.739 13.06C188.639 13.06 186.252 13.959 184.578 15.757C182.904 17.555 181.726 19.694 181.044 22.174L168.861 17.524C169.605 15.292 170.628 13.184 171.93 11.2C173.232 9.15397 174.875 7.38697 176.859 5.89897C178.905 4.41097 181.261 3.23297 183.927 2.36497C186.593 1.43497 189.662 0.969971 193.134 0.969971C196.668 0.969971 199.83 1.46597 202.62 2.45797C205.41 3.44997 207.766 4.81397 209.688 6.54997C211.61 8.28597 213.067 10.363 214.059 12.781C215.051 15.137 215.547 17.71 215.547 20.5C215.547 23.228 215.082 25.739 214.152 28.033C213.284 30.265 212.044 32.373 210.432 34.357C208.882 36.341 207.022 38.263 204.852 40.123C202.744 41.983 200.481 43.843 198.063 45.703L185.694 55.282L216.942 55.282V67Z" fill="#FFC700"/>
<path d="M276.891 68.116C268.211 68.116 261.794 65.171 257.64 59.281C253.548 53.391 251.502 45.145 251.502 34.543C251.502 23.941 253.548 15.695 257.64 9.80497C261.794 3.91497 268.211 0.969971 276.891 0.969971C285.571 0.969971 291.957 3.91497 296.049 9.80497C300.203 15.695 302.28 23.941 302.28 34.543C302.28 45.145 300.203 53.391 296.049 59.281C291.957 65.171 285.571 68.116 276.891 68.116ZM276.891 57.142C281.045 57.142 283.928 55.685 285.54 52.771C287.214 49.857 288.051 45.796 288.051 40.588V28.498C288.051 23.29 287.214 19.229 285.54 16.315C283.928 13.401 281.045 11.944 276.891 11.944C272.737 11.944 269.823 13.401 268.149 16.315C266.537 19.229 265.731 23.29 265.731 28.498V40.588C265.731 45.796 266.537 49.857 268.149 52.771C269.823 55.685 272.737 57.142 276.891 57.142ZM276.891 40.03C274.721 40.03 273.202 39.596 272.334 38.728C271.528 37.86 271.125 36.806 271.125 35.566V33.52C271.125 32.28 271.528 31.226 272.334 30.358C273.202 29.49 274.721 29.056 276.891 29.056C279.061 29.056 280.549 29.49 281.355 30.358C282.223 31.226 282.657 32.28 282.657 33.52V35.566C282.657 36.806 282.223 37.86 281.355 38.728C280.549 39.596 279.061 40.03 276.891 40.03Z" fill="#FFC700"/>
</svg>
