<?xml version="1.0" standalone="no"?>
<!DOCTYPE svg PUBLIC "-//W3C//DTD SVG 20010904//EN"
 "http://www.w3.org/TR/2001/REC-SVG-20010904/DTD/svg10.dtd">
<svg version="1.0" xmlns="http://www.w3.org/2000/svg"
 width="450.000000pt" height="450.000000pt" viewBox="0 0 450.000000 450.000000"
 preserveAspectRatio="xMidYMid meet">
<metadata>
Created by potrace 1.11, written by Peter Selinger 2001-2013
</metadata>
<g transform="translate(0.000000,450.000000) scale(0.100000,-0.100000)"
fill="#000000" stroke="none">
<path d="M2069 4246 c-2 -2 -29 -7 -59 -10 -170 -20 -335 -61 -492 -121 -605
-234 -1065 -757 -1218 -1385 -16 -63 -32 -140 -35 -170 -4 -30 -10 -77 -15
-105 -8 -49 -5 -390 3 -450 12 -86 21 -130 48 -239 136 -545 490 -1002 984
-1272 101 -55 256 -124 279 -124 8 0 17 -4 20 -9 3 -5 16 -11 28 -13 13 -3 66
-17 118 -31 52 -14 115 -28 140 -32 25 -4 54 -9 65 -11 109 -22 475 -28 555
-10 14 4 47 9 75 12 151 19 395 99 570 186 95 47 297 175 340 215 11 10 34 29
50 41 166 128 378 394 492 617 84 165 157 367 178 495 3 19 8 42 10 50 20 69
30 194 30 365 0 178 -7 267 -31 382 -96 471 -325 856 -689 1161 -271 227 -641
394 -970 438 -27 3 -59 8 -70 11 -23 6 -400 14 -406 9z"/>
</g>
</svg>
