<?xml version="1.0" standalone="no"?>
<!DOCTYPE svg PUBLIC "-//W3C//DTD SVG 20010904//EN"
 "http://www.w3.org/TR/2001/REC-SVG-20010904/DTD/svg10.dtd">
<svg version="1.0" xmlns="http://www.w3.org/2000/svg"
 width="384.000000pt" height="384.000000pt" viewBox="0 0 384.000000 384.000000"
 preserveAspectRatio="xMidYMid meet">
<metadata>
Created by potrace 1.11, written by Peter Selinger 2001-2013
</metadata>
<g transform="translate(0.000000,384.000000) scale(0.100000,-0.100000)"
fill="#000000" stroke="none">
<path d="M1758 3835 c-1 -2 -30 -6 -63 -9 -185 -17 -400 -80 -603 -177 -444
-211 -791 -587 -965 -1044 -32 -84 -64 -186 -73 -228 -2 -10 -5 -26 -8 -35 -3
-9 -8 -34 -12 -56 -3 -21 -8 -48 -10 -60 -20 -99 -26 -409 -11 -536 104 -871
816 -1581 1683 -1677 148 -17 433 -8 561 16 334 64 618 195 878 406 379 307
635 773 692 1256 10 80 9 398 0 459 -14 91 -28 166 -41 225 -25 111 -77 254
-138 380 -208 432 -583 778 -1033 955 -96 37 -291 91 -383 105 -23 4 -54 9
-70 11 -34 6 -399 14 -404 9z"/>
</g>
</svg>
