<?xml version="1.0" encoding="utf-8"?>
<!DOCTYPE svg PUBLIC "-//W3C//DTD SVG 20010904//EN" "http://www.w3.org/TR/2001/REC-SVG-20010904/DTD/svg10.dtd">
<svg version="1.0" xmlns="http://www.w3.org/2000/svg" width="999px" height="991px" viewBox="0 0 999 991" preserveAspectRatio="xMidYMid meet">
 <g fill="#ffffff">
  <path d="M0 893.5 l0 -97.5 88.5 0 88.5 0 0 97.5 0 97.5 -88.5 0 -88.5 0 0 -97.5z"/>
  <path d="M371 596.5 l0 -394.5 -87.5 0 -87.5 0 0 -101 0 -101 103 0 103 0 0 101 0 101 -9.5 0 -9.5 0 0 394.5 0 394.5 -6 0 -6 0 0 -394.5z"/>
  <path d="M590 893.5 l0 -97.5 3 0 3 0 0 -398 0 -398 153 0 153 0 0 38 0 38 7 0 7 0 0 -38 0 -38 5.5 0 5.5 0 0 38 0 38 14.5 0 14.5 0 0 -38 0 -38 5.5 0 5.5 0 0 38 0 38 16 0 16 0 0 63 0 63 -98.5 0 -98.5 0 0 394.5 0 394.5 -106 0 -106 0 0 -97.5z m301 -741.5 l0 -37 -7 0 -7 0 0 37 0 37 7 0 7 0 0 -37z m75 0 l0 -37 -3.5 0 -3.5 0 0 -10 0 -10 -7 0 -7 0 0 37 c0 36.3 0 37 2 37 1.9 0 2 0.7 2 10 l0 10 8.5 0 8.5 0 0 -37z m-28 -20 l0 -37 -7 0 -7 0 0 37 0 37 7 0 7 0 0 -37z"/>
 </g>
 <g fill="#f7f7f7">
  <path d="M174 800.5 c0 -1.3 -10.3 -1.5 -87 -1.5 l-87 0 0 -399.5 0 -399.5 99.5 0 99.5 0 0 99.5 c0 87.8 0.2 99.5 1.5 99.5 0.8 0 1.5 0.7 1.5 1.5 0 1.3 -2.1 1.5 -12.5 1.5 l-12.5 0 0 300 c0 266 -0.2 300 -1.5 300 -0.8 0 -1.5 -0.7 -1.5 -1.5z"/>
  <path d="M591.3 800.4 c-1 -1 -1.3 -62.4 -1.3 -299.9 l0 -298.5 -97 0 c-85.6 0 -97 -0.2 -97 -1.5 0 -0.8 0.6 -1.5 1.4 -1.5 1.1 0 1.3 -16.3 1.3 -99.2 l0 -99.3 100.1 -0.3 100.2 -0.2 0 399.5 0 399.5 -2.9 0 c-1.7 0 -3.1 0.6 -3.3 1.4 -0.2 1.2 -0.5 1.2 -1.5 0z"/>
  <path d="M946 173.5 c0 -0.8 -0.9 -1.5 -2 -1.5 -2 0 -2 -0.7 -2 -40 l0 -40 10 0 10 0 0 10 c0 8.2 0.3 10 1.5 10 0.8 0 1.5 0.7 1.5 1.5 0 1.2 -1.6 1.5 -8 1.5 l-8 0 0 30 c0 26 -0.2 30 -1.5 30 -0.8 0 -1.5 -0.7 -1.5 -1.5z"/>
  <path d="M921 132 l0 -40 10 0 10 0 0 40 0 40 -10 0 -10 0 0 -40z"/>
  <path d="M963 96 c0 -3.3 0.3 -4 2 -4 1.7 0 2 0.7 2 4 0 3.3 -0.3 4 -2 4 -1.7 0 -2 -0.7 -2 -4z"/>
  <path d="M924 39.5 l0 -39.5 9 0 9 0 0 39.5 0 39.5 -9 0 -9 0 0 -39.5z"/>
  <path d="M964 39.5 l0 -39.5 9 0 9 0 0 39.5 0 39.5 -9 0 -9 0 0 -39.5z"/>
 </g>
 <g fill="#efefef">
 </g>
 <g fill="#e6e6e6">
 </g>
 <g fill="#dedede">
 </g>
 <g fill="#d6d6d6">
  <path d="M398 194.3 c0 -0.5 0.9 -2 2 -3.3 1.1 -1.3 2 -1.9 2 -1.3 0 0.5 -0.9 2 -2 3.3 -1.1 1.3 -2 1.9 -2 1.3z"/>
  <path d="M398 186.3 c0 -0.5 0.9 -2 2 -3.3 1.1 -1.3 2 -1.9 2 -1.3 0 0.5 -0.9 2 -2 3.3 -1.1 1.3 -2 1.9 -2 1.3z"/>
  <path d="M398 178.3 c0 -0.5 0.9 -2 2 -3.3 1.1 -1.3 2 -1.9 2 -1.3 0 0.5 -0.9 2 -2 3.3 -1.1 1.3 -2 1.9 -2 1.3z"/>
  <path d="M398 170.3 c0 -0.5 0.9 -2 2 -3.3 1.1 -1.3 2 -1.9 2 -1.3 0 0.5 -0.9 2 -2 3.3 -1.1 1.3 -2 1.9 -2 1.3z"/>
  <path d="M398 162.3 c0 -0.5 0.9 -2 2 -3.3 1.1 -1.3 2 -1.9 2 -1.3 0 0.5 -0.9 2 -2 3.3 -1.1 1.3 -2 1.9 -2 1.3z"/>
  <path d="M398 154.3 c0 -0.5 0.9 -2 2 -3.3 1.1 -1.3 2 -1.9 2 -1.3 0 0.5 -0.9 2 -2 3.3 -1.1 1.3 -2 1.9 -2 1.3z"/>
  <path d="M398 146.3 c0 -0.5 0.9 -2 2 -3.3 1.1 -1.3 2 -1.9 2 -1.3 0 0.5 -0.9 2 -2 3.3 -1.1 1.3 -2 1.9 -2 1.3z"/>
  <path d="M398 138.3 c0 -0.5 0.9 -2 2 -3.3 1.1 -1.3 2 -1.9 2 -1.3 0 0.5 -0.9 2 -2 3.3 -1.1 1.3 -2 1.9 -2 1.3z"/>
  <path d="M398 130.3 c0 -0.5 0.9 -2 2 -3.3 1.1 -1.3 2 -1.9 2 -1.3 0 0.5 -0.9 2 -2 3.3 -1.1 1.3 -2 1.9 -2 1.3z"/>
  <path d="M398 122.3 c0 -0.5 0.9 -2 2 -3.3 1.1 -1.3 2 -1.9 2 -1.3 0 0.5 -0.9 2 -2 3.3 -1.1 1.3 -2 1.9 -2 1.3z"/>
  <path d="M398 114.3 c0 -0.5 0.9 -2 2 -3.3 1.1 -1.3 2 -1.9 2 -1.3 0 0.5 -0.9 2 -2 3.3 -1.1 1.3 -2 1.9 -2 1.3z"/>
  <path d="M398 106.3 c0 -0.5 0.9 -2 2 -3.3 1.1 -1.3 2 -1.9 2 -1.3 0 0.5 -0.9 2 -2 3.3 -1.1 1.3 -2 1.9 -2 1.3z"/>
  <path d="M398 98.3 c0 -0.5 0.9 -2 2 -3.3 1.1 -1.3 2 -1.9 2 -1.3 0 0.5 -0.9 2 -2 3.3 -1.1 1.3 -2 1.9 -2 1.3z"/>
  <path d="M398 90.3 c0 -0.5 0.9 -2 2 -3.3 1.1 -1.3 2 -1.9 2 -1.3 0 0.5 -0.9 2 -2 3.3 -1.1 1.3 -2 1.9 -2 1.3z"/>
  <path d="M398 82.3 c0 -0.5 0.9 -2 2 -3.3 1.1 -1.3 2 -1.9 2 -1.3 0 0.5 -0.9 2 -2 3.3 -1.1 1.3 -2 1.9 -2 1.3z"/>
  <path d="M398 74.3 c0 -0.5 0.9 -2 2 -3.3 1.1 -1.3 2 -1.9 2 -1.3 0 0.5 -0.9 2 -2 3.3 -1.1 1.3 -2 1.9 -2 1.3z"/>
  <path d="M398 66.3 c0 -0.5 0.9 -2 2 -3.3 1.1 -1.3 2 -1.9 2 -1.3 0 0.5 -0.9 2 -2 3.3 -1.1 1.3 -2 1.9 -2 1.3z"/>
  <path d="M398 58.3 c0 -0.5 0.9 -2 2 -3.3 1.1 -1.3 2 -1.9 2 -1.3 0 0.5 -0.9 2 -2 3.3 -1.1 1.3 -2 1.9 -2 1.3z"/>
  <path d="M398 50.3 c0 -0.5 0.9 -2 2 -3.3 1.1 -1.3 2 -1.9 2 -1.3 0 0.5 -0.9 2 -2 3.3 -1.1 1.3 -2 1.9 -2 1.3z"/>
  <path d="M398 42.3 c0 -0.5 0.9 -2 2 -3.3 1.1 -1.3 2 -1.9 2 -1.3 0 0.5 -0.9 2 -2 3.3 -1.1 1.3 -2 1.9 -2 1.3z"/>
  <path d="M398 34.3 c0 -0.5 0.9 -2 2 -3.3 1.1 -1.3 2 -1.9 2 -1.3 0 0.5 -0.9 2 -2 3.3 -1.1 1.3 -2 1.9 -2 1.3z"/>
  <path d="M398 26.3 c0 -0.5 0.9 -2 2 -3.3 1.1 -1.3 2 -1.9 2 -1.3 0 0.5 -0.9 2 -2 3.3 -1.1 1.3 -2 1.9 -2 1.3z"/>
  <path d="M398 18.3 c0 -0.5 0.9 -2 2 -3.3 1.1 -1.3 2 -1.9 2 -1.3 0 0.5 -0.9 2 -2 3.3 -1.1 1.3 -2 1.9 -2 1.3z"/>
  <path d="M398 10.3 c0 -0.5 0.9 -2 2 -3.3 1.1 -1.3 2 -1.9 2 -1.3 0 0.5 -0.9 2 -2 3.3 -1.1 1.3 -2 1.9 -2 1.3z"/>
 </g>
 <g fill="#cecece">
 </g>
 <g fill="#c5c5c5">
 </g>
 <g fill="#bdbdbd">
 </g>
 <g fill="#b5b5b5">
 </g>
 <g fill="#adadad">
 </g>
 <g fill="#a5a5a5">
 </g>
 <g fill="#9c9c9c">
 </g>
 <g fill="#949494">
 </g>
 <g fill="#8c8c8c">
 </g>
 <g fill="#848484">
  <path d="M174 595 l0 -396 100 0 100 0 0 396 0 396 -100 0 -100 0 0 -396z"/>
  <path d="M380 595 l0 -396 8 0 8 0 0 396 0 396 -8 0 -8 0 0 -396z"/>
  <path d="M590 502 l0 -300 -96 0 c-84.7 0 -96 -0.2 -96 -1.5 0 -0.8 0.5 -1.5 1 -1.5 0.6 0 45.6 -44.6 100.1 -99.1 54.5 -54.5 99.3 -98.8 99.6 -98.6 0.2 0.3 -43.7 44.7 -97.6 98.6 -54 54 -98.1 98.3 -98.1 98.6 0 0.3 1.1 0.5 2.5 0.5 2 0 22.1 -19.6 97.6 -95.1 52.3 -52.3 95.3 -94.8 95.6 -94.6 0.2 0.3 -41.9 42.9 -93.6 94.6 -51.8 51.8 -94.1 94.3 -94.1 94.6 0 0.3 1.1 0.5 2.5 0.5 2 0 21.3 -18.8 93.6 -91.1 50.1 -50.1 91.3 -90.8 91.6 -90.6 0.2 0.3 -40.1 41.1 -89.6 90.6 -49.6 49.6 -90.1 90.3 -90.1 90.6 0 0.3 1.1 0.5 2.5 0.5 2 0 20.5 -18 89.6 -87.1 47.9 -47.9 87.3 -86.8 87.6 -86.6 0.2 0.3 -38.3 39.3 -85.6 86.6 -47.4 47.4 -86.1 86.3 -86.1 86.6 0 0.3 1.1 0.5 2.5 0.5 2 0 19.7 -17.2 85.6 -83.1 45.7 -45.7 83.3 -82.8 83.6 -82.6 0.2 0.3 -36.5 37.5 -81.6 82.6 -45.2 45.2 -82.1 82.3 -82.1 82.6 0 0.3 1.1 0.5 2.5 0.5 2 0 18.9 -16.4 81.6 -79.1 43.5 -43.5 79.3 -78.8 79.6 -78.6 0.2 0.3 -34.7 35.7 -77.6 78.6 -43 43 -78.1 78.3 -78.1 78.6 0 0.3 1.1 0.5 2.5 0.5 2 0 18.1 -15.6 77.6 -75.1 41.3 -41.3 75.3 -74.8 75.6 -74.6 0.2 0.3 -32.9 33.9 -73.6 74.6 -40.8 40.8 -74.1 74.3 -74.1 74.6 0 0.3 1.1 0.5 2.5 0.5 2 0 17.3 -14.8 73.6 -71.1 39.1 -39.1 71.3 -70.8 71.6 -70.6 0.2 0.3 -31.1 32.1 -69.6 70.6 -38.6 38.6 -70.1 70.3 -70.1 70.6 0 0.3 1.1 0.5 2.5 0.5 2 0 16.5 -14 69.6 -67.1 36.9 -36.9 67.3 -66.8 67.6 -66.6 0.2 0.3 -29.3 30.3 -65.6 66.6 -36.4 36.4 -66.1 66.3 -66.1 66.6 0 0.3 1.1 0.5 2.5 0.5 2 0 15.7 -13.2 65.6 -63.1 34.7 -34.7 63.3 -62.8 63.6 -62.6 0.2 0.3 -27.5 28.5 -61.6 62.6 -34.2 34.2 -62.1 62.3 -62.1 62.6 0 0.3 1.1 0.5 2.5 0.5 2 0 14.9 -12.4 61.6 -59.1 32.5 -32.5 59.3 -58.8 59.6 -58.6 0.2 0.3 -25.7 26.7 -57.6 58.6 -32 32 -58.1 58.3 -58.1 58.6 0 0.3 1.1 0.5 2.5 0.5 2 0 14.1 -11.6 57.6 -55.1 30.3 -30.3 55.3 -54.8 55.6 -54.6 0.2 0.3 -23.9 24.9 -53.6 54.6 -29.8 29.8 -54.1 54.3 -54.1 54.6 0 0.3 1.1 0.5 2.5 0.5 2 0 13.3 -10.8 53.6 -51.1 28.1 -28.1 51.3 -50.8 51.6 -50.6 0.2 0.3 -22.1 23.1 -49.6 50.6 -27.6 27.6 -50.1 50.3 -50.1 50.6 0 0.3 1.1 0.5 2.5 0.5 2 0 12.5 -10 49.6 -47.1 25.9 -25.9 47.3 -46.8 47.6 -46.6 0.2 0.3 -20.3 21.3 -45.6 46.6 -25.4 25.4 -46.1 46.3 -46.1 46.6 0 0.3 1.1 0.5 2.5 0.5 2 0 11.7 -9.2 45.6 -43.1 23.7 -23.7 43.3 -42.8 43.6 -42.6 0.2 0.3 -18.5 19.5 -41.6 42.6 -23.2 23.2 -42.1 42.3 -42.1 42.6 0 0.3 1.1 0.5 2.5 0.5 2 0 10.9 -8.4 41.6 -39.1 21.5 -21.5 39.3 -38.8 39.6 -38.6 0.2 0.3 -16.7 17.7 -37.6 38.6 -21 20.9 -38.1 38.3 -38.1 38.6 0 0.3 1.1 0.5 2.5 0.5 2 0 10.1 -7.6 37.6 -35.1 19.3 -19.3 35.3 -34.8 35.6 -34.6 0.2 0.3 -14.9 15.9 -33.6 34.6 -18.8 18.7 -34.1 34.3 -34.1 34.6 0 0.3 1.1 0.5 2.5 0.5 2 0 9.3 -6.8 33.6 -31.1 17.1 -17.1 31.3 -30.8 31.6 -30.6 0.2 0.3 -13.1 14.1 -29.6 30.6 -16.6 16.5 -30.1 30.3 -30.1 30.6 0 0.3 1.1 0.5 2.5 0.5 2 0 8.5 -6 29.6 -27.1 14.9 -14.9 27.3 -26.8 27.6 -26.6 0.2 0.3 -11.3 12.3 -25.6 26.6 -14.4 14.3 -26.1 26.3 -26.1 26.6 0 0.3 1.1 0.5 2.5 0.5 2 0 7.7 -5.2 25.6 -23.1 12.7 -12.7 23.3 -22.9 23.6 -22.6 0.3 0.3 -9.5 10.5 -21.6 22.6 -12.2 12.1 -22.1 22.3 -22.1 22.6 0 0.3 1.1 0.5 2.5 0.5 2 0 6.9 -4.4 21.6 -19.1 10.5 -10.5 19.3 -18.9 19.6 -18.6 0.3 0.3 -7.7 8.7 -17.6 18.6 -10 9.9 -18.1 18.3 -18.1 18.6 0 0.3 1.1 0.5 2.5 0.5 1.9 0 6.1 -3.6 17.6 -15.1 8.3 -8.3 15.3 -14.9 15.6 -14.6 0.3 0.3 -5.9 6.9 -13.6 14.6 -7.8 7.7 -14.1 14.3 -14.1 14.6 0 0.3 1.1 0.5 2.5 0.5 1.9 0 5.3 -2.8 13.6 -11.1 6.1 -6.1 11.3 -10.9 11.6 -10.6 0.3 0.3 -4 5.1 -9.6 10.6 -5.6 5.5 -10.1 10.3 -10.1 10.6 0 0.3 1.1 0.5 2.5 0.5 1.9 0 4.6 -2 9.6 -7.1 3.9 -3.9 7.3 -6.9 7.6 -6.6 0.3 0.3 -2.2 3.3 -5.6 6.6 -3.3 3.3 -6.1 6.2 -6.1 6.5 0 0.4 1.2 0.6 2.6 0.6 1.6 0 3.7 -1.2 5.5 -3.1 1.6 -1.8 3.2 -2.9 3.6 -2.6 0.3 0.4 -0.8 2 -2.6 3.6 -1.9 1.8 -3.1 3.9 -3.1 5.5 0 3.2 0.7 3.3 3.1 0.4 1.1 -1.1 2.2 -1.8 2.5 -1.5 0.4 0.4 -0.7 2 -2.5 3.6 -1.9 1.8 -3.1 3.9 -3.1 5.5 0 3.2 0.7 3.3 3.1 0.4 1.1 -1.1 2.2 -1.8 2.5 -1.5 0.4 0.4 -0.7 2 -2.5 3.6 -1.9 1.8 -3.1 3.9 -3.1 5.5 0 3.2 0.7 3.3 3.1 0.4 1.1 -1.1 2.2 -1.8 2.5 -1.5 0.4 0.4 -0.7 2 -2.5 3.6 -1.9 1.8 -3.1 3.9 -3.1 5.5 0 3.2 0.7 3.3 3.1 0.4 1.1 -1.1 2.2 -1.8 2.5 -1.5 0.4 0.4 -0.7 2 -2.5 3.6 -1.9 1.8 -3.1 3.9 -3.1 5.5 0 3.2 0.7 3.3 3.1 0.4 1.1 -1.1 2.2 -1.8 2.5 -1.5 0.4 0.4 -0.7 2 -2.5 3.6 -1.9 1.8 -3.1 3.9 -3.1 5.5 0 3.2 0.7 3.3 3.1 0.4 1.1 -1.1 2.2 -1.8 2.5 -1.5 0.4 0.4 -0.7 2 -2.5 3.6 -1.9 1.8 -3.1 3.9 -3.1 5.5 0 3.2 0.7 3.3 3.1 0.4 1.1 -1.1 2.2 -1.8 2.5 -1.5 0.4 0.4 -0.7 2 -2.5 3.6 -1.9 1.8 -3.1 3.9 -3.1 5.5 0 3.2 0.7 3.3 3.1 0.4 1.1 -1.1 2.2 -1.8 2.5 -1.5 0.4 0.4 -0.7 2 -2.5 3.6 -1.9 1.8 -3.1 3.9 -3.1 5.5 0 3.2 0.7 3.3 3.1 0.4 1.1 -1.1 2.2 -1.8 2.5 -1.5 0.4 0.4 -0.7 2 -2.5 3.6 -1.9 1.8 -3.1 3.9 -3.1 5.5 0 3.2 0.7 3.3 3.1 0.4 1.1 -1.1 2.2 -1.8 2.5 -1.5 0.4 0.4 -0.7 2 -2.5 3.6 -1.9 1.8 -3.1 3.9 -3.1 5.5 0 3.2 0.7 3.3 3.1 0.4 1.1 -1.1 2.2 -1.8 2.5 -1.5 0.4 0.4 -0.7 2 -2.5 3.6 -1.9 1.8 -3.1 3.9 -3.1 5.5 0 3.2 0.7 3.3 3.1 0.4 1.1 -1.1 2.2 -1.8 2.5 -1.5 0.4 0.4 -0.7 2 -2.5 3.6 -1.9 1.8 -3.1 3.9 -3.1 5.5 0 3.2 0.7 3.3 3.1 0.4 1.1 -1.1 2.2 -1.8 2.5 -1.5 0.4 0.4 -0.7 2 -2.5 3.6 -1.9 1.8 -3.1 3.9 -3.1 5.5 0 3.2 0.7 3.3 3.1 0.4 1.1 -1.1 2.2 -1.8 2.5 -1.5 0.4 0.4 -0.7 2 -2.5 3.6 -1.9 1.8 -3.1 3.9 -3.1 5.5 0 3.2 0.7 3.3 3.1 0.4 1.1 -1.1 2.2 -1.8 2.5 -1.5 0.4 0.4 -0.7 2 -2.5 3.6 -1.9 1.8 -3.1 3.9 -3.1 5.5 0 3.2 0.7 3.3 3.1 0.4 1.1 -1.1 2.2 -1.8 2.5 -1.5 0.4 0.4 -0.7 2 -2.5 3.6 -1.9 1.8 -3.1 3.9 -3.1 5.5 0 3.2 0.7 3.3 3.1 0.4 1.1 -1.1 2.2 -1.8 2.5 -1.5 0.4 0.4 -0.7 2 -2.5 3.6 -1.9 1.8 -3.1 3.9 -3.1 5.5 0 3.2 0.7 3.3 3.1 0.4 1.1 -1.1 2.2 -1.8 2.5 -1.5 0.4 0.4 -0.7 2 -2.5 3.6 -1.9 1.8 -3.1 3.9 -3.1 5.5 0 3.2 0.7 3.3 3.1 0.4 1.1 -1.1 2.2 -1.8 2.5 -1.5 0.4 0.4 -0.7 2 -2.5 3.6 -1.9 1.8 -3.1 3.9 -3.1 5.5 0 3.2 0.7 3.3 3.1 0.4 1.1 -1.1 2.2 -1.8 2.5 -1.5 0.4 0.4 -0.7 2 -2.5 3.6 -1.9 1.8 -3.1 3.9 -3.1 5.5 0 3.2 0.7 3.3 3.1 0.4 1.1 -1.1 2.2 -1.8 2.5 -1.5 0.4 0.4 -0.7 2 -2.5 3.6 -1.9 1.8 -3.1 3.9 -3.1 5.5 0 3.2 0.7 3.3 3.1 0.4 1.1 -1.1 2.2 -1.8 2.5 -1.5 0.4 0.4 -0.7 2 -2.5 3.6 -1.9 1.8 -3.1 3.9 -3.1 5.5 0 3.2 0.7 3.3 3.1 0.4 1.1 -1.1 2.2 -1.8 2.5 -1.5 0.4 0.4 -0.7 2 -2.5 3.6 -1.9 1.8 -3.1 3.9 -3.1 5.5 0 3.2 0.7 3.3 3.1 0.4 1.1 -1.1 2.2 -1.8 2.5 -1.5 0.4 0.4 -0.7 2 -2.5 3.6 -1.9 1.8 -3.1 3.9 -3.1 5.5 0 3.2 0.7 3.3 3.1 0.4 1.1 -1.1 2.2 -1.8 2.5 -1.5 0.4 0.4 -0.7 2 -2.5 3.6 -1.9 1.8 -3.1 3.9 -3.1 5.5 0 3.2 0.7 3.3 3.1 0.4 1.1 -1.1 2.2 -1.8 2.5 -1.5 0.4 0.4 -0.7 2 -2.5 3.6 -1.9 1.8 -3.1 3.9 -3.1 5.5 0 3.2 0.7 3.3 3.1 0.4 1.1 -1.1 2.2 -1.8 2.5 -1.5 0.4 0.4 -0.7 2 -2.5 3.6 -1.9 1.8 -3.1 3.9 -3.1 5.5 0 3.2 0.7 3.3 3.1 0.4 1.1 -1.1 2.2 -1.8 2.5 -1.5 0.4 0.4 -0.7 2 -2.5 3.6 -1.9 1.8 -3.1 3.9 -3.1 5.5 0 3.2 0.7 3.3 3.1 0.4 1.1 -1.1 2.2 -1.8 2.5 -1.5 0.4 0.4 -0.7 2 -2.5 3.6 -1.9 1.8 -3.1 3.9 -3.1 5.5 0 3.2 0.7 3.3 3.1 0.4 1.1 -1.1 2.2 -1.8 2.5 -1.5 0.4 0.4 -0.7 2 -2.5 3.6 -1.9 1.8 -3.1 3.9 -3.1 5.5 0 3.2 0.7 3.3 3.1 0.4 1.1 -1.1 2.2 -1.8 2.5 -1.5 0.4 0.4 -0.7 2 -2.5 3.6 -1.9 1.8 -3.1 3.9 -3.1 5.5 0 3.2 0.7 3.3 3.1 0.4 1.1 -1.1 2.2 -1.8 2.5 -1.5 0.4 0.4 -0.7 2 -2.5 3.6 -1.9 1.8 -3.1 3.9 -3.1 5.5 0 3.2 0.7 3.3 3.1 0.4 1.1 -1.1 2.2 -1.8 2.5 -1.5 0.4 0.4 -0.7 2 -2.5 3.6 -1.9 1.8 -3.1 3.9 -3.1 5.5 0 3.2 0.7 3.3 3.1 0.4 1.1 -1.1 2.2 -1.8 2.5 -1.5 0.4 0.4 -0.7 2 -2.5 3.6 -1.9 1.8 -3.1 3.9 -3.1 5.5 0 3.2 0.7 3.3 3.1 0.4 1.1 -1.1 2.2 -1.8 2.5 -1.5 0.4 0.4 -0.7 2 -2.5 3.6 -1.9 1.8 -3.1 3.9 -3.1 5.5 0 3.2 0.7 3.3 3.1 0.4 1.1 -1.1 2.2 -1.8 2.5 -1.5 0.4 0.4 -0.7 2 -2.5 3.6 -1.9 1.8 -3.1 3.9 -3.1 5.5 0 3.2 0.7 3.3 3.1 0.4 1.1 -1.1 2.2 -1.8 2.5 -1.5 0.4 0.4 -0.7 2 -2.5 3.6 -1.9 1.8 -3.1 3.9 -3.1 5.5 0 3.2 0.7 3.3 3.1 0.4 1.1 -1.1 2.2 -1.8 2.5 -1.5 0.4 0.4 -0.7 2 -2.5 3.6 -1.9 1.8 -3.1 3.9 -3.1 5.5 0 3.2 0.7 3.3 3.1 0.4 1.1 -1.1 2.2 -1.8 2.5 -1.5 0.4 0.4 -0.7 2 -2.5 3.6 -1.9 1.8 -3.1 3.9 -3.1 5.5 0 3.2 0.7 3.3 3.1 0.4 1.1 -1.1 2.2 -1.8 2.5 -1.5 0.4 0.4 -0.7 2 -2.5 3.6 -1.9 1.8 -3.1 3.9 -3.1 5.5 0 3.2 0.7 3.3 3.1 0.4 1.1 -1.1 2.2 -1.8 2.5 -1.5 0.4 0.4 -0.7 2 -2.5 3.6 -1.9 1.8 -3.1 3.9 -3.1 5.5 0 3.2 0.7 3.3 3.1 0.4 1.1 -1.1 2.2 -1.8 2.5 -1.5 0.4 0.4 -0.7 2 -2.5 3.6 -1.9 1.8 -3.1 3.9 -3.1 5.5 0 3.2 0.7 3.3 3.1 0.4 1.1 -1.1 2.2 -1.8 2.5 -1.5 0.4 0.4 -0.7 2 -2.5 3.6 -1.9 1.8 -3.1 3.9 -3.1 5.5 0 3.2 0.7 3.3 3.1 0.4 1.1 -1.1 2.2 -1.8 2.5 -1.5 0.4 0.4 -0.7 2 -2.5 3.6 -1.9 1.8 -3.1 3.9 -3.1 5.5 0 3.2 0.7 3.3 3.1 0.4 1.1 -1.1 2.2 -1.8 2.5 -1.5 0.4 0.4 -0.7 2 -2.5 3.6 -1.9 1.8 -3.1 3.9 -3.1 5.5 0 3.2 0.7 3.3 3.1 0.4 1.1 -1.1 2.2 -1.8 2.5 -1.5 0.4 0.4 -0.7 2 -2.5 3.6 -1.9 1.8 -3.1 3.9 -3.1 5.5 0 3.2 0.7 3.3 3.1 0.4 1.1 -1.1 2.2 -1.8 2.5 -1.5 0.4 0.4 -0.7 2 -2.5 3.6 -1.9 1.8 -3.1 3.9 -3.1 5.5 0 3.2 0.7 3.3 3.1 0.4 1.1 -1.1 2.2 -1.8 2.5 -1.5 0.4 0.4 -0.7 2 -2.5 3.6 -1.9 1.8 -3.1 3.9 -3.1 5.5 0 3.2 0.7 3.3 3.1 0.4 1.1 -1.1 2.2 -1.8 2.5 -1.5 0.4 0.4 -0.7 2 -2.5 3.6 -1.9 1.8 -3.1 3.9 -3.1 5.5 0 3.2 0.7 3.3 3.1 0.4 1.1 -1.1 2.2 -1.8 2.5 -1.5 0.4 0.4 -0.7 2 -2.5 3.6 -1.9 1.8 -3.1 3.9 -3.1 5.5 0 3.2 0.7 3.3 3.1 0.4 1.1 -1.1 2.2 -1.8 2.5 -1.5 0.4 0.4 -0.7 2 -2.5 3.6 -1.9 1.8 -3.1 3.9 -3.1 5.5 0 3.2 0.7 3.3 3.1 0.4 1.1 -1.1 2.2 -1.8 2.5 -1.5 0.4 0.4 -0.7 2 -2.5 3.6 -1.9 1.8 -3.1 3.9 -3.1 5.5 0 3.2 0.7 3.3 3.1 0.4 1.1 -1.1 2.2 -1.8 2.5 -1.5 0.4 0.4 -0.7 2 -2.5 3.6 -1.9 1.8 -3.1 3.9 -3.1 5.5 0 3.2 0.7 3.3 3.1 0.4 1.1 -1.1 2.2 -1.8 2.5 -1.5 0.4 0.4 -0.7 2 -2.5 3.6 -1.9 1.8 -3.1 3.9 -3.1 5.5 0 3.2 0.7 3.3 3.1 0.4 1.1 -1.1 2.2 -1.8 2.5 -1.5 0.4 0.4 -0.7 2 -2.5 3.6 -1.9 1.8 -3.1 3.9 -3.1 5.5 0 3.2 0.7 3.3 3.1 0.4 1.1 -1.1 2.2 -1.8 2.5 -1.5 0.4 0.4 -0.7 2 -2.5 3.6 -1.9 1.8 -3.1 3.9 -3.1 5.5 0 3.2 0.7 3.3 3.1 0.4 1.1 -1.1 2.2 -1.8 2.5 -1.5 0.4 0.4 -0.7 2 -2.5 3.6 -1.9 1.8 -3.1 3.9 -3.1 5.5 0 3.2 0.7 3.3 3.1 0.4 1.1 -1.1 2.2 -1.8 2.5 -1.5 0.4 0.4 -0.7 2 -2.5 3.6 -1.9 1.8 -3.1 3.9 -3.1 5.5 0 3.2 0.7 3.3 3.1 0.4 1.1 -1.1 2.2 -1.8 2.5 -1.5 0.4 0.4 -0.7 2 -2.5 3.6 -1.9 1.8 -3.1 3.9 -3.1 5.5 0 3.2 0.7 3.3 3.1 0.4 1.1 -1.1 2.2 -1.8 2.5 -1.5 0.4 0.4 -0.7 2 -2.5 3.6 -1.9 1.8 -3.1 3.9 -3.1 5.5 0 3.2 0.7 3.3 3.1 0.4 1.1 -1.1 2.2 -1.8 2.5 -1.5 0.4 0.4 -0.7 2 -2.5 3.6 -1.9 1.8 -3.1 3.9 -3.1 5.5 0 3.2 0.7 3.3 3.1 0.4 1.1 -1.1 2.2 -1.8 2.5 -1.5 0.4 0.4 -0.7 2 -2.5 3.6 -1.9 1.8 -3.1 3.9 -3.1 5.5 0 3.2 0.7 3.3 3.1 0.4 1.1 -1.1 2.2 -1.8 2.5 -1.5 0.4 0.4 -0.7 2 -2.5 3.6 -1.9 1.8 -3.1 3.9 -3.1 5.5 0 3.2 0.7 3.3 3.1 0.4 1.1 -1.1 2.2 -1.8 2.5 -1.5 0.4 0.4 -0.7 2 -2.5 3.6 -1.9 1.8 -3.1 3.9 -3.1 5.5 0 3.2 0.7 3.3 3.1 0.4 1.1 -1.1 2.2 -1.8 2.5 -1.5 0.4 0.4 -0.7 2 -2.5 3.6 -1.9 1.8 -3.1 3.9 -3.1 5.5 0 3.2 0.7 3.3 3.1 0.4 1.1 -1.1 2.2 -1.8 2.5 -1.5 0.4 0.4 -0.7 2 -2.5 3.6 -1.9 1.8 -3.1 3.9 -3.1 5.5 0 3.2 0.7 3.3 3.1 0.4 1.1 -1.1 2.2 -1.8 2.5 -1.5 0.4 0.4 -0.7 2 -2.5 3.6 -1.9 1.8 -3.1 3.9 -3.1 5.5 0 3.2 0.7 3.3 3.1 0.4 1.1 -1.1 2.2 -1.8 2.5 -1.5 0.4 0.4 -0.7 2 -2.5 3.6 -1.9 1.8 -3.1 3.9 -3.1 5.5 0 3.2 0.7 3.3 3.1 0.4 1.1 -1.1 2.2 -1.8 2.5 -1.5 0.4 0.4 -0.7 2 -2.5 3.6 -1.9 1.8 -3.1 3.9 -3.1 5.5 0 3.2 0.7 3.3 3.1 0.4 1.1 -1.1 2.2 -1.8 2.5 -1.5 0.4 0.4 -0.7 2 -2.5 3.6 -1.9 1.8 -3.1 3.9 -3.1 5.5 0 3.2 0.7 3.3 3.1 0.4 1.1 -1.1 2.2 -1.8 2.5 -1.5 0.4 0.4 -0.7 2 -2.5 3.6 -1.9 1.8 -3.1 3.9 -3.1 5.5 0 3.2 0.7 3.3 3.1 0.4 1.1 -1.1 2.2 -1.8 2.5 -1.5 0.4 0.4 -0.7 2 -2.5 3.6 -1.9 1.8 -3.1 3.9 -3.1 5.5 0 3.2 0.7 3.3 3.1 0.4 1.1 -1.1 2.2 -1.8 2.5 -1.5 0.4 0.4 -0.7 2 -2.5 3.6 -1.9 1.8 -3.1 3.9 -3.1 5.5 0 3.2 0.7 3.3 3.1 0.4 1.1 -1.1 2.2 -1.8 2.5 -1.5 0.4 0.4 -0.7 2 -2.5 3.6 -1.9 1.8 -3.1 3.9 -3.1 5.5 0 3.2 0.7 3.3 3.1 0.4 1.1 -1.1 2.2 -1.8 2.5 -1.5 0.4 0.4 -0.7 2 -2.5 3.6 -1.7 1.6 -3.1 3.4 -3.1 4 0 0.6 -0.7 1.1 -1.5 1.1 -1.3 0 -1.5 -34 -1.5 -300z"/>
  <path d="M399 192.5 c0 -1 192 -192.5 193 -192.5 0.6 0 -42.4 43.4 -95.5 96.5 -53.1 53.1 -96.7 96.5 -97 96.5 -0.3 0 -0.5 -0.2 -0.5 -0.5z"/>
  <path d="M946 152 l0 -40 3 0 3 0 0 40 0 40 -3 0 -3 0 0 -40z"/>
  <path d="M399 184.5 c0 -1 184 -184.5 185 -184.5 0.6 0 -40.6 41.6 -91.5 92.5 -50.9 50.9 -92.7 92.5 -93 92.5 -0.3 0 -0.5 -0.2 -0.5 -0.5z"/>
  <path d="M399 176.5 c0 -1 176 -176.5 177 -176.5 0.6 0 -38.8 39.8 -87.5 88.5 -48.7 48.7 -88.7 88.5 -89 88.5 -0.3 0 -0.5 -0.2 -0.5 -0.5z"/>
  <path d="M399 168.5 c0 -1 168 -168.5 169 -168.5 0.6 0 -37 38 -83.5 84.5 -46.5 46.5 -84.7 84.5 -85 84.5 -0.3 0 -0.5 -0.2 -0.5 -0.5z"/>
  <path d="M399 160.5 c0 -1 160 -160.5 161 -160.5 0.6 0 -35.2 36.2 -79.5 80.5 -44.3 44.3 -80.7 80.5 -81 80.5 -0.3 0 -0.5 -0.2 -0.5 -0.5z"/>
  <path d="M399 152.5 c0 -1 152 -152.5 153 -152.5 0.6 0 -33.4 34.4 -75.5 76.5 -42.1 42.1 -76.7 76.5 -77 76.5 -0.3 0 -0.5 -0.2 -0.5 -0.5z"/>
  <path d="M399 144.5 c0 -1 144 -144.5 145 -144.5 0.6 0 -31.6 32.6 -71.5 72.5 -39.9 39.9 -72.7 72.5 -73 72.5 -0.3 0 -0.5 -0.2 -0.5 -0.5z"/>
  <path d="M399 136.5 c0 -1 136 -136.5 137 -136.5 0.6 0 -29.8 30.8 -67.5 68.5 -37.7 37.7 -68.7 68.5 -69 68.5 -0.3 0 -0.5 -0.2 -0.5 -0.5z"/>
  <path d="M399 128.5 c0 -1 128 -128.5 129 -128.5 0.6 0 -28 29 -63.5 64.5 -35.5 35.5 -64.7 64.5 -65 64.5 -0.3 0 -0.5 -0.2 -0.5 -0.5z"/>
  <path d="M399 120.5 c0 -1 120 -120.5 121 -120.5 0.6 0 -26.2 27.2 -59.5 60.5 -33.3 33.3 -60.7 60.5 -61 60.5 -0.3 0 -0.5 -0.2 -0.5 -0.5z"/>
  <path d="M399 112.5 c0 -1 112 -112.5 113 -112.5 0.6 0 -24.4 25.4 -55.5 56.5 -31.1 31.1 -56.7 56.5 -57 56.5 -0.3 0 -0.5 -0.2 -0.5 -0.5z"/>
  <path d="M399 104.5 c0 -1 104 -104.5 105 -104.5 0.6 0 -22.6 23.6 -51.5 52.5 -28.9 28.9 -52.7 52.5 -53 52.5 -0.3 0 -0.5 -0.2 -0.5 -0.5z"/>
  <path d="M964 96 c0 -3.3 0.3 -4 2 -4 1.7 0 2 0.7 2 4 0 3.3 -0.3 4 -2 4 -1.7 0 -2 -0.7 -2 -4z"/>
  <path d="M970 96 c0 -2.2 0.5 -4 1 -4 0.6 0 1 1.8 1 4 0 2.2 -0.4 4 -1 4 -0.5 0 -1 -1.8 -1 -4z"/>
  <path d="M399 96.5 c0 -1 96 -96.5 97 -96.5 0.6 0 -20.8 21.8 -47.5 48.5 -26.7 26.7 -48.7 48.5 -49 48.5 -0.3 0 -0.5 -0.2 -0.5 -0.5z"/>
  <path d="M399 88.5 c0 -1 88 -88.5 89 -88.5 0.6 0 -19 20 -43.5 44.5 -24.5 24.5 -44.7 44.5 -45 44.5 -0.3 0 -0.5 -0.2 -0.5 -0.5z"/>
  <path d="M399 80.5 c0 -1 80 -80.5 81 -80.5 0.6 0 -17.2 18.2 -39.5 40.5 -22.3 22.3 -40.7 40.5 -41 40.5 -0.3 0 -0.5 -0.2 -0.5 -0.5z"/>
  <path d="M979 39.5 l0 -39.5 10 0 10 0 0 39.5 0 39.5 -10 0 -10 0 0 -39.5z"/>
  <path d="M399 72.5 c0 -1 72 -72.5 73 -72.5 0.6 0 -15.4 16.4 -35.5 36.5 -20.1 20.1 -36.7 36.5 -37 36.5 -0.3 0 -0.5 -0.2 -0.5 -0.5z"/>
  <path d="M399 64.5 c0 -1 64 -64.5 65 -64.5 0.6 0 -13.6 14.6 -31.5 32.5 -17.9 17.9 -32.7 32.5 -33 32.5 -0.3 0 -0.5 -0.2 -0.5 -0.5z"/>
  <path d="M399 56.5 c0 -1 56 -56.5 57 -56.5 0.6 0 -11.8 12.8 -27.5 28.5 -15.7 15.7 -28.7 28.5 -29 28.5 -0.3 0 -0.5 -0.2 -0.5 -0.5z"/>
  <path d="M399 48.5 c0 -1 48 -48.5 49 -48.5 0.6 0 -10 11 -23.5 24.5 -13.5 13.5 -24.7 24.5 -25 24.5 -0.3 0 -0.5 -0.2 -0.5 -0.5z"/>
  <path d="M399 40.5 c0 -1 40 -40.5 41 -40.5 0.6 0 -8.2 9.2 -19.5 20.5 -19.1 19.1 -21.5 21.3 -21.5 20z"/>
  <path d="M399 32.5 c0 -1 32 -32.5 33 -32.5 0.6 0 -6.4 7.4 -15.5 16.5 -15.4 15.4 -17.5 17.3 -17.5 16z"/>
  <path d="M399 24.5 c0 -1 24 -24.5 25 -24.5 0.6 0 -4.6 5.6 -11.5 12.5 -11.7 11.7 -13.5 13.3 -13.5 12z"/>
  <path d="M399 16.5 c0 -1 16.1 -16.5 17.1 -16.5 0.5 0 -2.9 3.8 -7.6 8.5 -8 8 -9.5 9.3 -9.5 8z"/>
  <path d="M399 8.4 c0 -0.9 8.1 -8.4 9.1 -8.4 0.5 0 -1.1 2 -3.5 4.5 -4.4 4.3 -5.6 5.2 -5.6 3.9z"/>
 </g>
 <g fill="#7b7b7b">
 </g>
 <g fill="#737373">
 </g>
 <g fill="#6b6b6b">
  <path d="M577 893.5 l0 -97.5 8 0 8 0 0 97.5 0 97.5 -8 0 -8 0 0 -97.5z"/>
  <path d="M799 595 l0 -396 100 0 100 0 0 396 0 396 -100 0 -100 0 0 -396z"/>
  <path d="M874 152 l0 -40 10 0 10 0 0 40 0 40 -10 0 -10 0 0 -40z"/>
  <path d="M964 96 c0 -2.2 0.5 -4 1 -4 0.6 0 1 1.8 1 4 0 2.2 -0.4 4 -1 4 -0.5 0 -1 -1.8 -1 -4z"/>
  <path d="M899 39.5 l0 -39.5 10 0 10 0 0 39.5 0 39.5 -10 0 -10 0 0 -39.5z"/>
 </g>
 <g fill="#636363">
 </g>
 <g fill="#5a5a5a">
  <path d="M577 500.5 l0 -301.5 8 0 8 0 0 300 0 300 -6.5 0 c-5.1 0 -6.5 0.3 -6.5 1.5 0 0.8 -0.7 1.5 -1.5 1.5 -1.3 0 -1.5 -34.2 -1.5 -301.5z"/>
  <path d="M960 96 c0 -2.2 0.5 -4 1 -4 0.6 0 1 1.8 1 4 0 2.2 -0.4 4 -1 4 -0.5 0 -1 -1.8 -1 -4z"/>
  <path d="M964.3 96 c0 -2.5 0.2 -3.5 0.4 -2.2 0.2 1.2 0.2 3.2 0 4.5 -0.2 1.2 -0.4 0.2 -0.4 -2.3z"/>
 </g>
 <g fill="#525252">
 </g>
 <g fill="#4a4a4a">
 </g>
 <g fill="#424242">
 </g>
 <g fill="#3a3a3a">
 </g>
 <g fill="#313131">
 </g>
 <g fill="#292929">
  <path d="M393 595 l0 -396 4.5 0 4.5 0 0 298.5 0 298.5 89.3 0 89.2 0 -0.3 97.5 -0.2 97.5 -93.5 0 -93.5 0 0 -396z"/>
  <path d="M963 152 l0 -40 3 0 3 0 0 40 0 40 -3 0 -3 0 0 -40z"/>
  <path d="M942 39.5 l0 -39.5 8.5 0 8.5 0 0 39.5 0 39.5 -8.5 0 -8.5 0 0 -39.5z"/>
 </g>
 <g fill="#212121">
  <path d="M398.9 796.5 c-0.1 -2 -0.1 -595.2 0 -596.5 0.1 -0.5 0.8 -1 1.6 -1 1.3 0 1.5 33.9 1.5 299.5 0 265.6 -0.2 299.5 -1.5 299.5 -0.8 0 -1.5 -0.7 -1.6 -1.5z"/>
 </g>
 <g fill="#191919">
  <path d="M941 39.5 c0 -38.8 0 -39.5 2 -39.5 2 0 2 0.7 2 39.5 0 38.8 0 39.5 -2 39.5 -2 0 -2 -0.7 -2 -39.5z"/>
 </g>
 <g fill="#101010">
  <path d="M949 180.5 l0 -11.5 5 0 5 0 0 -28.5 0 -28.5 3.5 0 3.5 0 0 40 0 40 -8.5 0 -8.5 0 0 -11.5z"/>
 </g>
 <g fill="#080808">
 </g>
 <g fill="#000000">
  <path d="M399 499 l0 -300 90.5 0 c89.8 0 90.5 0 90.6 2 0 1.1 0.1 135.7 0.1 299 0 163.4 -0.1 297.5 -0.1 298 -0.1 0.7 -31 1 -90.6 1 l-90.5 0 0 -300z"/>
  <path d="M585 798.5 c0 -1.1 7.1 -7.7 7.7 -7.2 0.3 0.3 -1.1 2.2 -3.1 4.1 -3.4 3.4 -4.6 4.2 -4.6 3.1z"/>
  <path d="M581 794.5 c0 -1 11.2 -11.7 11.7 -11.2 0.3 0.3 -2 3.1 -5.1 6.1 -5.2 5.3 -6.6 6.3 -6.6 5.1z"/>
  <path d="M581 786.5 c0 -1 11.2 -11.7 11.7 -11.2 0.3 0.3 -2 3.1 -5.1 6.1 -5.2 5.3 -6.6 6.3 -6.6 5.1z"/>
  <path d="M581 778.5 c0 -1 11.2 -11.7 11.7 -11.2 0.3 0.3 -2 3.1 -5.1 6.1 -5.2 5.3 -6.6 6.3 -6.6 5.1z"/>
  <path d="M581 770.5 c0 -1 11.2 -11.7 11.7 -11.2 0.3 0.3 -2 3.1 -5.1 6.1 -5.2 5.3 -6.6 6.3 -6.6 5.1z"/>
  <path d="M581 762.5 c0 -1 11.2 -11.7 11.7 -11.2 0.3 0.3 -2 3.1 -5.1 6.1 -5.2 5.3 -6.6 6.3 -6.6 5.1z"/>
  <path d="M581 754.5 c0 -1 11.2 -11.7 11.7 -11.2 0.3 0.3 -2 3.1 -5.1 6.1 -5.2 5.3 -6.6 6.3 -6.6 5.1z"/>
  <path d="M581 746.5 c0 -1 11.2 -11.7 11.7 -11.2 0.3 0.3 -2 3.1 -5.1 6.1 -5.2 5.3 -6.6 6.3 -6.6 5.1z"/>
  <path d="M581 738.5 c0 -1 11.2 -11.7 11.7 -11.2 0.3 0.3 -2 3.1 -5.1 6.1 -5.2 5.3 -6.6 6.3 -6.6 5.1z"/>
  <path d="M581 730.5 c0 -1 11.2 -11.7 11.7 -11.2 0.3 0.3 -2 3.1 -5.1 6.1 -5.2 5.3 -6.6 6.3 -6.6 5.1z"/>
  <path d="M581 722.5 c0 -1 11.2 -11.7 11.7 -11.2 0.3 0.3 -2 3.1 -5.1 6.1 -5.2 5.3 -6.6 6.3 -6.6 5.1z"/>
  <path d="M581 714.5 c0 -1 11.2 -11.7 11.7 -11.2 0.3 0.3 -2 3.1 -5.1 6.1 -5.2 5.3 -6.6 6.3 -6.6 5.1z"/>
  <path d="M581 706.5 c0 -1 11.2 -11.7 11.7 -11.2 0.3 0.3 -2 3.1 -5.1 6.1 -5.2 5.3 -6.6 6.3 -6.6 5.1z"/>
  <path d="M581 698.5 c0 -1 11.2 -11.7 11.7 -11.2 0.3 0.3 -2 3.1 -5.1 6.1 -5.2 5.3 -6.6 6.3 -6.6 5.1z"/>
  <path d="M581 690.5 c0 -1 11.2 -11.7 11.7 -11.2 0.3 0.3 -2 3.1 -5.1 6.1 -5.2 5.3 -6.6 6.3 -6.6 5.1z"/>
  <path d="M581 682.5 c0 -1 11.2 -11.7 11.7 -11.2 0.3 0.3 -2 3.1 -5.1 6.1 -5.2 5.3 -6.6 6.3 -6.6 5.1z"/>
  <path d="M581 674.5 c0 -1 11.2 -11.7 11.7 -11.2 0.3 0.3 -2 3.1 -5.1 6.1 -5.2 5.3 -6.6 6.3 -6.6 5.1z"/>
  <path d="M581 666.5 c0 -1 11.2 -11.7 11.7 -11.2 0.3 0.3 -2 3.1 -5.1 6.1 -5.2 5.3 -6.6 6.3 -6.6 5.1z"/>
  <path d="M581 658.5 c0 -1 11.2 -11.7 11.7 -11.2 0.3 0.3 -2 3.1 -5.1 6.1 -5.2 5.3 -6.6 6.3 -6.6 5.1z"/>
  <path d="M581 650.5 c0 -1 11.2 -11.7 11.7 -11.2 0.3 0.3 -2 3.1 -5.1 6.1 -5.2 5.3 -6.6 6.3 -6.6 5.1z"/>
  <path d="M581 642.5 c0 -1 11.2 -11.7 11.7 -11.2 0.3 0.3 -2 3.1 -5.1 6.1 -5.2 5.3 -6.6 6.3 -6.6 5.1z"/>
  <path d="M581 634.5 c0 -1 11.2 -11.7 11.7 -11.2 0.3 0.3 -2 3.1 -5.1 6.1 -5.2 5.3 -6.6 6.3 -6.6 5.1z"/>
  <path d="M581 626.5 c0 -1 11.2 -11.7 11.7 -11.2 0.3 0.3 -2 3.1 -5.1 6.1 -5.2 5.3 -6.6 6.3 -6.6 5.1z"/>
  <path d="M581 618.5 c0 -1 11.2 -11.7 11.7 -11.2 0.3 0.3 -2 3.1 -5.1 6.1 -5.2 5.3 -6.6 6.3 -6.6 5.1z"/>
  <path d="M581 610.5 c0 -1 11.2 -11.7 11.7 -11.2 0.3 0.3 -2 3.1 -5.1 6.1 -5.2 5.3 -6.6 6.3 -6.6 5.1z"/>
  <path d="M581 602.5 c0 -1 11.2 -11.7 11.7 -11.2 0.3 0.3 -2 3.1 -5.1 6.1 -5.2 5.3 -6.6 6.3 -6.6 5.1z"/>
  <path d="M581 594.5 c0 -1 11.2 -11.7 11.7 -11.2 0.3 0.3 -2 3.1 -5.1 6.1 -5.2 5.3 -6.6 6.3 -6.6 5.1z"/>
  <path d="M581 586.5 c0 -1 11.2 -11.7 11.7 -11.2 0.3 0.3 -2 3.1 -5.1 6.1 -5.2 5.3 -6.6 6.3 -6.6 5.1z"/>
  <path d="M581 578.5 c0 -1 11.2 -11.7 11.7 -11.2 0.3 0.3 -2 3.1 -5.1 6.1 -5.2 5.3 -6.6 6.3 -6.6 5.1z"/>
  <path d="M581 570.5 c0 -1 11.2 -11.7 11.7 -11.2 0.3 0.3 -2 3.1 -5.1 6.1 -5.2 5.3 -6.6 6.3 -6.6 5.1z"/>
  <path d="M581 562.5 c0 -1 11.2 -11.7 11.7 -11.2 0.3 0.3 -2 3.1 -5.1 6.1 -5.2 5.3 -6.6 6.3 -6.6 5.1z"/>
  <path d="M581 554.5 c0 -1 11.2 -11.7 11.7 -11.2 0.3 0.3 -2 3.1 -5.1 6.1 -5.2 5.3 -6.6 6.3 -6.6 5.1z"/>
  <path d="M581 546.5 c0 -1 11.2 -11.7 11.7 -11.2 0.3 0.3 -2 3.1 -5.1 6.1 -5.2 5.3 -6.6 6.3 -6.6 5.1z"/>
  <path d="M581 538.5 c0 -1 11.2 -11.7 11.7 -11.2 0.3 0.3 -2 3.1 -5.1 6.1 -5.2 5.3 -6.6 6.3 -6.6 5.1z"/>
  <path d="M581 530.5 c0 -1 11.2 -11.7 11.7 -11.2 0.3 0.3 -2 3.1 -5.1 6.1 -5.2 5.3 -6.6 6.3 -6.6 5.1z"/>
  <path d="M581 522.5 c0 -1 11.2 -11.7 11.7 -11.2 0.3 0.3 -2 3.1 -5.1 6.1 -5.2 5.3 -6.6 6.3 -6.6 5.1z"/>
  <path d="M581 514.5 c0 -1 11.2 -11.7 11.7 -11.2 0.3 0.3 -2 3.1 -5.1 6.1 -5.2 5.3 -6.6 6.3 -6.6 5.1z"/>
  <path d="M581 506.5 c0 -1 11.2 -11.7 11.7 -11.2 0.3 0.3 -2 3.1 -5.1 6.1 -5.2 5.3 -6.6 6.3 -6.6 5.1z"/>
  <path d="M581 498.5 c0 -1 11.2 -11.7 11.7 -11.2 0.3 0.3 -2 3.1 -5.1 6.1 -5.2 5.3 -6.6 6.3 -6.6 5.1z"/>
  <path d="M581 490.5 c0 -1 11.2 -11.7 11.7 -11.2 0.3 0.3 -2 3.1 -5.1 6.1 -5.2 5.3 -6.6 6.3 -6.6 5.1z"/>
  <path d="M581 482.5 c0 -1 11.2 -11.7 11.7 -11.2 0.3 0.3 -2 3.1 -5.1 6.1 -5.2 5.3 -6.6 6.3 -6.6 5.1z"/>
  <path d="M581 474.5 c0 -1 11.2 -11.7 11.7 -11.2 0.3 0.3 -2 3.1 -5.1 6.1 -5.2 5.3 -6.6 6.3 -6.6 5.1z"/>
  <path d="M581 466.5 c0 -1 11.2 -11.7 11.7 -11.2 0.3 0.3 -2 3.1 -5.1 6.1 -5.2 5.3 -6.6 6.3 -6.6 5.1z"/>
  <path d="M581 458.5 c0 -1 11.2 -11.7 11.7 -11.2 0.3 0.3 -2 3.1 -5.1 6.1 -5.2 5.3 -6.6 6.3 -6.6 5.1z"/>
  <path d="M581 450.5 c0 -1 11.2 -11.7 11.7 -11.2 0.3 0.3 -2 3.1 -5.1 6.1 -5.2 5.3 -6.6 6.3 -6.6 5.1z"/>
  <path d="M581 442.5 c0 -1 11.2 -11.7 11.7 -11.2 0.3 0.3 -2 3.1 -5.1 6.1 -5.2 5.3 -6.6 6.3 -6.6 5.1z"/>
  <path d="M581 434.5 c0 -1 11.2 -11.7 11.7 -11.2 0.3 0.3 -2 3.1 -5.1 6.1 -5.2 5.3 -6.6 6.3 -6.6 5.1z"/>
  <path d="M581 426.5 c0 -1 11.2 -11.7 11.7 -11.2 0.3 0.3 -2 3.1 -5.1 6.1 -5.2 5.3 -6.6 6.3 -6.6 5.1z"/>
  <path d="M581 418.5 c0 -1 11.2 -11.7 11.7 -11.2 0.3 0.3 -2 3.1 -5.1 6.1 -5.2 5.3 -6.6 6.3 -6.6 5.1z"/>
  <path d="M581 410.5 c0 -1 11.2 -11.7 11.7 -11.2 0.3 0.3 -2 3.1 -5.1 6.1 -5.2 5.3 -6.6 6.3 -6.6 5.1z"/>
  <path d="M581 402.5 c0 -1 11.2 -11.7 11.7 -11.2 0.3 0.3 -2 3.1 -5.1 6.1 -5.2 5.3 -6.6 6.3 -6.6 5.1z"/>
  <path d="M581 394.5 c0 -1 11.2 -11.7 11.7 -11.2 0.3 0.3 -2 3.1 -5.1 6.1 -5.2 5.3 -6.6 6.3 -6.6 5.1z"/>
  <path d="M581 386.5 c0 -1 11.2 -11.7 11.7 -11.2 0.3 0.3 -2 3.1 -5.1 6.1 -5.2 5.3 -6.6 6.3 -6.6 5.1z"/>
  <path d="M581 378.5 c0 -1 11.2 -11.7 11.7 -11.2 0.3 0.3 -2 3.1 -5.1 6.1 -5.2 5.3 -6.6 6.3 -6.6 5.1z"/>
  <path d="M581 370.5 c0 -1 11.2 -11.7 11.7 -11.2 0.3 0.3 -2 3.1 -5.1 6.1 -5.2 5.3 -6.6 6.3 -6.6 5.1z"/>
  <path d="M581 362.5 c0 -1 11.2 -11.7 11.7 -11.2 0.3 0.3 -2 3.1 -5.1 6.1 -5.2 5.3 -6.6 6.3 -6.6 5.1z"/>
  <path d="M581 354.5 c0 -1 11.2 -11.7 11.7 -11.2 0.3 0.3 -2 3.1 -5.1 6.1 -5.2 5.3 -6.6 6.3 -6.6 5.1z"/>
  <path d="M581 346.5 c0 -1 11.2 -11.7 11.7 -11.2 0.3 0.3 -2 3.1 -5.1 6.1 -5.2 5.3 -6.6 6.3 -6.6 5.1z"/>
  <path d="M581 338.5 c0 -1 11.2 -11.7 11.7 -11.2 0.3 0.3 -2 3.1 -5.1 6.1 -5.2 5.3 -6.6 6.3 -6.6 5.1z"/>
  <path d="M581 330.5 c0 -1 11.2 -11.7 11.7 -11.2 0.3 0.3 -2 3.1 -5.1 6.1 -5.2 5.3 -6.6 6.3 -6.6 5.1z"/>
  <path d="M581 322.5 c0 -1 11.2 -11.7 11.7 -11.2 0.3 0.3 -2 3.1 -5.1 6.1 -5.2 5.3 -6.6 6.3 -6.6 5.1z"/>
  <path d="M581 314.5 c0 -1 11.2 -11.7 11.7 -11.2 0.3 0.3 -2 3.1 -5.1 6.1 -5.2 5.3 -6.6 6.3 -6.6 5.1z"/>
  <path d="M581 306.5 c0 -1 11.2 -11.7 11.7 -11.2 0.3 0.3 -2 3.1 -5.1 6.1 -5.2 5.3 -6.6 6.3 -6.6 5.1z"/>
  <path d="M581 298.5 c0 -1 11.2 -11.7 11.7 -11.2 0.3 0.3 -2 3.1 -5.1 6.1 -5.2 5.3 -6.6 6.3 -6.6 5.1z"/>
  <path d="M581 290.5 c0 -1 11.2 -11.7 11.7 -11.2 0.3 0.3 -2 3.1 -5.1 6.1 -5.2 5.3 -6.6 6.3 -6.6 5.1z"/>
  <path d="M581 282.5 c0 -1 11.2 -11.7 11.7 -11.2 0.3 0.3 -2 3.1 -5.1 6.1 -5.2 5.3 -6.6 6.3 -6.6 5.1z"/>
  <path d="M581 274.5 c0 -1 11.2 -11.7 11.7 -11.2 0.3 0.3 -2 3.1 -5.1 6.1 -5.2 5.3 -6.6 6.3 -6.6 5.1z"/>
  <path d="M581 266.5 c0 -1 11.2 -11.7 11.7 -11.2 0.3 0.3 -2 3.1 -5.1 6.1 -5.2 5.3 -6.6 6.3 -6.6 5.1z"/>
  <path d="M581 258.5 c0 -1 11.2 -11.7 11.7 -11.2 0.3 0.3 -2 3.1 -5.1 6.1 -5.2 5.3 -6.6 6.3 -6.6 5.1z"/>
  <path d="M581 250.5 c0 -1 11.2 -11.7 11.7 -11.2 0.3 0.3 -2 3.1 -5.1 6.1 -5.2 5.3 -6.6 6.3 -6.6 5.1z"/>
  <path d="M581 242.5 c0 -1 11.2 -11.7 11.7 -11.2 0.3 0.3 -2 3.1 -5.1 6.1 -5.2 5.3 -6.6 6.3 -6.6 5.1z"/>
  <path d="M581 234.5 c0 -1 11.2 -11.7 11.7 -11.2 0.3 0.3 -2 3.1 -5.1 6.1 -5.2 5.3 -6.6 6.3 -6.6 5.1z"/>
  <path d="M581 226.5 c0 -1 11.2 -11.7 11.7 -11.2 0.3 0.3 -2 3.1 -5.1 6.1 -5.2 5.3 -6.6 6.3 -6.6 5.1z"/>
  <path d="M581 218.5 c0 -1 11.2 -11.7 11.7 -11.2 0.3 0.3 -2 3.1 -5.1 6.1 -5.2 5.3 -6.6 6.3 -6.6 5.1z"/>
  <path d="M581 210.5 c0 -1 11.2 -11.7 11.7 -11.2 0.3 0.3 -2 3.1 -5.1 6.1 -5.2 5.3 -6.6 6.3 -6.6 5.1z"/>
  <path d="M581 202.4 c0 -1 3.1 -3.6 3.7 -3.1 0.3 0.3 -0.2 1.3 -1 2.2 -1.6 1.5 -2.7 1.9 -2.7 0.9z"/>
  <path d="M949 142 l0 -30 6.5 0 6.5 0 0 30 0 30 -6.5 0 -6.5 0 0 -30z"/>
  <path d="M939 39.5 l0 -39.5 2.5 0 2.5 0 0 39.5 0 39.5 -2.5 0 -2.5 0 0 -39.5z"/>
 </g>
</svg>