<?xml version="1.0" encoding="utf-8"?>
<!DOCTYPE svg PUBLIC "-//W3C//DTD SVG 20010904//EN" "http://www.w3.org/TR/2001/REC-SVG-20010904/DTD/svg10.dtd">
<svg version="1.0" xmlns="http://www.w3.org/2000/svg" width="999px" height="991px" viewBox="0 0 999 991" preserveAspectRatio="xMidYMid meet">
 <g fill="#ffffff">
  <path d="M0 893.5 l0 -97.5 88.5 0 88.5 0 0 97.5 0 97.5 -88.5 0 -88.5 0 0 -97.5z"/>
  <path d="M371 596.5 l0 -394.5 -87.5 0 -87.5 0 0 -101 0 -101 103 0 103 0 0 101 0 101 -9.5 0 -9.5 0 0 394.5 0 394.5 -6 0 -6 0 0 -394.5z"/>
  <path d="M590 893.5 l0 -97.5 3 0 3 0 0 -398 0 -398 153 0 153 0 0 38 0 38 7 0 7 0 0 -38 0 -38 5.5 0 5.5 0 0 38 0 38 14.5 0 14.5 0 0 -38 0 -38 5.5 0 5.5 0 0 38 0 38 16 0 16 0 0 63 0 63 -98.5 0 -98.5 0 0 394.5 0 394.5 -106 0 -106 0 0 -97.5z m301 -741.5 l0 -37 -7 0 -7 0 0 37 0 37 7 0 7 0 0 -37z m75 0 l0 -37 -3.5 0 -3.5 0 0 -10 0 -10 -7 0 -7 0 0 37 c0 36.3 0 37 2 37 1.9 0 2 0.7 2 10 l0 10 8.5 0 8.5 0 0 -37z m-28 -20 l0 -37 -7 0 -7 0 0 37 0 37 7 0 7 0 0 -37z"/>
 </g>
 <g fill="#ffff33">
  <path d="M174 800.5 c0 -1.3 -10.3 -1.5 -87 -1.5 l-87 0 0 -399.5 0 -399.5 99.5 0 99.5 0 0 99.5 c0 87.8 0.2 99.5 1.5 99.5 0.8 0 1.5 0.7 1.5 1.5 0 1.3 -2.1 1.5 -12.5 1.5 l-12.5 0 0 300 c0 266 -0.2 300 -1.5 300 -0.8 0 -1.5 -0.7 -1.5 -1.5z"/>
  <path d="M591.3 800.4 c-1 -1 -1.3 -62.4 -1.3 -299.9 l0 -298.5 -97 0 c-85.6 0 -97 -0.2 -97 -1.5 0 -0.8 0.7 -1.5 1.5 -1.5 1.3 0 1.5 -11.7 1.5 -99.5 l0 -99.5 100 0 100 0 0 399.5 0 399.5 -2.9 0 c-1.7 0 -3.1 0.6 -3.3 1.4 -0.2 1.2 -0.5 1.2 -1.5 0z"/>
  <path d="M946 173.5 c0 -0.8 -0.9 -1.5 -2 -1.5 -2 0 -2 -0.7 -2 -40 l0 -40 10 0 10 0 0 10 c0 8.2 0.3 10 1.5 10 0.8 0 1.5 0.7 1.5 1.5 0 1.2 -1.6 1.5 -8 1.5 l-8 0 0 30 c0 26 -0.2 30 -1.5 30 -0.8 0 -1.5 -0.7 -1.5 -1.5z"/>
  <path d="M921 132 l0 -40 10 0 10 0 0 40 0 40 -10 0 -10 0 0 -40z"/>
  <path d="M963 96 c0 -3.3 0.3 -4 2 -4 1.7 0 2 0.7 2 4 0 3.3 -0.3 4 -2 4 -1.7 0 -2 -0.7 -2 -4z"/>
  <path d="M924 39.5 l0 -39.5 9 0 9 0 0 39.5 0 39.5 -9 0 -9 0 0 -39.5z"/>
  <path d="M964 39.5 l0 -39.5 9 0 9 0 0 39.5 0 39.5 -9 0 -9 0 0 -39.5z"/>
 </g>
 <g fill="#ff0099">
  <path d="M174 893.5 l0 -97.5 11 0 11 0 0 -298.5 0 -298.5 89 0 89 0 0 396 0 396 -100 0 -100 0 0 -97.5z"/>
  <path d="M380 595 l0 -396 8 0 8 0 0 396 0 396 -8 0 -8 0 0 -396z"/>
  <path d="M946 180.5 l0 -11.5 3 0 3 0 0 11.5 0 11.5 -3 0 -3 0 0 -11.5z"/>
  <path d="M964 96 c0 -3.3 0.3 -4 2 -4 1.7 0 2 0.7 2 4 0 3.3 -0.3 4 -2 4 -1.7 0 -2 -0.7 -2 -4z"/>
  <path d="M970 96 c0 -2.2 0.5 -4 1 -4 0.6 0 1 1.8 1 4 0 2.2 -0.4 4 -1 4 -0.5 0 -1 -1.8 -1 -4z"/>
  <path d="M982 39.5 l0 -39.5 8.5 0 8.5 0 0 39.5 0 39.5 -8.5 0 -8.5 0 0 -39.5z"/>
 </g>
 <g fill="#ff007a">
  <path d="M981 39.5 c0 -38.8 0 -39.5 2 -39.5 2 0 2 0.7 2 39.5 0 38.8 0 39.5 -2 39.5 -2 0 -2 -0.7 -2 -39.5z"/>
 </g>
 <g fill="#0066ff">
  <path d="M577 893.4 l0 -97.5 9.4 0.2 c7.3 0.2 9.3 0.6 8.9 1.6 -0.3 0.7 -0.9 1.3 -1.4 1.3 -0.5 0 -0.9 40.3 -0.9 96 l0 96 -8 0 -8 0 0 -97.6z"/>
  <path d="M799 595 l0 -396 100 0 100 0 0 396 0 396 -100 0 -100 0 0 -396z"/>
  <path d="M874 152 l0 -40 10 0 10 0 0 40 0 40 -10 0 -10 0 0 -40z"/>
  <path d="M964 96 c0 -2.2 0.5 -4 1 -4 0.6 0 1 1.8 1 4 0 2.2 -0.4 4 -1 4 -0.5 0 -1 -1.8 -1 -4z"/>
  <path d="M899 39.5 l0 -39.5 10 0 10 0 0 39.5 0 39.5 -10 0 -10 0 0 -39.5z"/>
 </g>
 <g fill="#ff001f">
  <path d="M174 499 l0 -300 12.5 0 12.5 0 0 300 0 300 -12.5 0 -12.5 0 0 -300z"/>
  <path d="M590 500.5 l0 -298.5 -96 0 c-84.7 0 -96 -0.2 -96 -1.5 0 -0.8 0.5 -1.5 1 -1.5 0.6 0 45.6 -44.6 100.1 -99.1 54.5 -54.5 99.3 -98.8 99.6 -98.6 0.2 0.3 -43.7 44.7 -97.6 98.6 -54 54 -98.1 98.3 -98.1 98.6 0 0.3 1.1 0.5 2.5 0.5 2 0 22.1 -19.6 97.6 -95.1 52.3 -52.3 95.3 -94.8 95.6 -94.6 0.2 0.3 -41.9 42.9 -93.6 94.6 -51.8 51.8 -94.1 94.3 -94.1 94.6 0 0.3 1.1 0.5 2.5 0.5 2 0 21.3 -18.8 93.6 -91.1 50.1 -50.1 91.3 -90.8 91.6 -90.6 0.2 0.3 -40.1 41.1 -89.6 90.6 -49.6 49.6 -90.1 90.3 -90.1 90.6 0 0.3 1.1 0.5 2.5 0.5 2 0 20.5 -18 89.6 -87.1 47.9 -47.9 87.3 -86.8 87.6 -86.6 0.2 0.3 -38.3 39.3 -85.6 86.6 -47.4 47.4 -86.1 86.3 -86.1 86.6 0 0.3 1.1 0.5 2.5 0.5 2 0 19.7 -17.2 85.6 -83.1 45.7 -45.7 83.3 -82.8 83.6 -82.6 0.2 0.3 -36.5 37.5 -81.6 82.6 -45.2 45.2 -82.1 82.3 -82.1 82.6 0 0.3 1.1 0.5 2.5 0.5 2 0 18.9 -16.4 81.6 -79.1 43.5 -43.5 79.3 -78.8 79.6 -78.6 0.2 0.3 -34.7 35.7 -77.6 78.6 -43 43 -78.1 78.3 -78.1 78.6 0 0.3 1.1 0.5 2.5 0.5 2 0 18.1 -15.6 77.6 -75.1 41.3 -41.3 75.3 -74.8 75.6 -74.6 0.2 0.3 -32.9 33.9 -73.6 74.6 -40.8 40.8 -74.1 74.3 -74.1 74.6 0 0.3 1.1 0.5 2.5 0.5 2 0 17.3 -14.8 73.6 -71.1 39.1 -39.1 71.3 -70.8 71.6 -70.6 0.2 0.3 -31.1 32.1 -69.6 70.6 -38.6 38.6 -70.1 70.3 -70.1 70.6 0 0.3 1.1 0.5 2.5 0.5 2 0 16.5 -14 69.6 -67.1 36.9 -36.9 67.3 -66.8 67.6 -66.6 0.2 0.3 -29.3 30.3 -65.6 66.6 -36.4 36.4 -66.1 66.3 -66.1 66.6 0 0.3 1.1 0.5 2.5 0.5 2 0 15.7 -13.2 65.6 -63.1 34.7 -34.7 63.3 -62.8 63.6 -62.6 0.2 0.3 -27.5 28.5 -61.6 62.6 -34.2 34.2 -62.1 62.3 -62.1 62.6 0 0.3 1.1 0.5 2.5 0.5 2 0 14.9 -12.4 61.6 -59.1 32.5 -32.5 59.3 -58.8 59.6 -58.6 0.2 0.3 -25.7 26.7 -57.6 58.6 -32 32 -58.1 58.3 -58.1 58.6 0 0.3 1.1 0.5 2.5 0.5 2 0 14.1 -11.6 57.6 -55.1 30.3 -30.3 55.3 -54.8 55.6 -54.6 0.2 0.3 -23.9 24.9 -53.6 54.6 -29.8 29.8 -54.1 54.3 -54.1 54.6 0 0.3 1.1 0.5 2.5 0.5 2 0 13.3 -10.8 53.6 -51.1 28.1 -28.1 51.3 -50.8 51.6 -50.6 0.2 0.3 -22.1 23.1 -49.6 50.6 -27.6 27.6 -50.1 50.3 -50.1 50.6 0 0.3 1.1 0.5 2.5 0.5 2 0 12.5 -10 49.6 -47.1 25.9 -25.9 47.3 -46.8 47.6 -46.6 0.2 0.3 -20.3 21.3 -45.6 46.6 -25.4 25.4 -46.1 46.3 -46.1 46.6 0 0.3 1.1 0.5 2.5 0.5 2 0 11.7 -9.2 45.6 -43.1 23.7 -23.7 43.3 -42.8 43.6 -42.6 0.2 0.3 -18.5 19.5 -41.6 42.6 -23.2 23.2 -42.1 42.3 -42.1 42.6 0 0.3 1.1 0.5 2.5 0.5 2 0 10.9 -8.4 41.6 -39.1 21.5 -21.5 39.3 -38.8 39.6 -38.6 0.2 0.3 -16.7 17.7 -37.6 38.6 -21 20.9 -38.1 38.3 -38.1 38.6 0 0.3 1.1 0.5 2.5 0.5 2 0 10.1 -7.6 37.6 -35.1 19.3 -19.3 35.3 -34.8 35.6 -34.6 0.2 0.3 -14.9 15.9 -33.6 34.6 -18.8 18.7 -34.1 34.3 -34.1 34.6 0 0.3 1.1 0.5 2.5 0.5 2 0 9.3 -6.8 33.6 -31.1 17.1 -17.1 31.3 -30.8 31.6 -30.6 0.2 0.3 -13.1 14.1 -29.6 30.6 -16.6 16.5 -30.1 30.3 -30.1 30.6 0 0.3 1.1 0.5 2.5 0.5 2 0 8.5 -6 29.6 -27.1 14.9 -14.9 27.3 -26.8 27.6 -26.6 0.2 0.3 -11.3 12.3 -25.6 26.6 -14.4 14.3 -26.1 26.3 -26.1 26.6 0 0.3 1.1 0.5 2.5 0.5 2 0 7.7 -5.2 25.6 -23.1 12.7 -12.7 23.3 -22.9 23.6 -22.6 0.3 0.3 -9.5 10.5 -21.6 22.6 -12.2 12.1 -22.1 22.3 -22.1 22.6 0 0.3 1.1 0.5 2.5 0.5 2 0 6.9 -4.4 21.6 -19.1 10.5 -10.5 19.3 -18.9 19.6 -18.6 0.3 0.3 -7.7 8.7 -17.6 18.6 -10 9.9 -18.1 18.3 -18.1 18.6 0 0.3 1.1 0.5 2.5 0.5 1.9 0 6.1 -3.6 17.6 -15.1 8.3 -8.3 15.3 -14.9 15.6 -14.6 0.3 0.3 -5.9 6.9 -13.6 14.6 -7.8 7.7 -14.1 14.3 -14.1 14.6 0 0.3 1.1 0.5 2.5 0.5 1.9 0 5.3 -2.8 13.6 -11.1 6.1 -6.1 11.3 -10.9 11.6 -10.6 0.3 0.3 -4 5.1 -9.6 10.6 -5.6 5.5 -10.1 10.3 -10.1 10.6 0 0.3 1.1 0.5 2.5 0.5 1.9 0 4.6 -2 9.6 -7.1 3.9 -3.9 7.3 -6.9 7.6 -6.6 0.3 0.3 -2.2 3.3 -5.6 6.6 -3.3 3.3 -6.1 6.2 -6.1 6.5 0 0.4 1.2 0.6 2.6 0.6 1.6 0 3.7 -1.2 5.5 -3.1 1.6 -1.8 3.2 -2.9 3.6 -2.6 0.3 0.4 -0.8 2 -2.6 3.6 -1.9 1.8 -3.1 3.9 -3.1 5.5 0 3.2 0.7 3.3 3.1 0.4 1.1 -1.1 2.2 -1.8 2.5 -1.5 0.4 0.4 -0.7 2 -2.5 3.6 -1.9 1.8 -3.1 3.9 -3.1 5.5 0 3.2 0.7 3.3 3.1 0.4 1.1 -1.1 2.2 -1.8 2.5 -1.5 0.4 0.4 -0.7 2 -2.5 3.6 -1.9 1.8 -3.1 3.9 -3.1 5.5 0 3.2 0.7 3.3 3.1 0.4 1.1 -1.1 2.2 -1.8 2.5 -1.5 0.4 0.4 -0.7 2 -2.5 3.6 -1.9 1.8 -3.1 3.9 -3.1 5.5 0 3.2 0.7 3.3 3.1 0.4 1.1 -1.1 2.2 -1.8 2.5 -1.5 0.4 0.4 -0.7 2 -2.5 3.6 -1.9 1.8 -3.1 3.9 -3.1 5.5 0 3.2 0.7 3.3 3.1 0.4 1.1 -1.1 2.2 -1.8 2.5 -1.5 0.4 0.4 -0.7 2 -2.5 3.6 -1.9 1.8 -3.1 3.9 -3.1 5.5 0 3.2 0.7 3.3 3.1 0.4 1.1 -1.1 2.2 -1.8 2.5 -1.5 0.4 0.4 -0.7 2 -2.5 3.6 -1.9 1.8 -3.1 3.9 -3.1 5.5 0 3.2 0.7 3.3 3.1 0.4 1.1 -1.1 2.2 -1.8 2.5 -1.5 0.4 0.4 -0.7 2 -2.5 3.6 -1.9 1.8 -3.1 3.9 -3.1 5.5 0 3.2 0.7 3.3 3.1 0.4 1.1 -1.1 2.2 -1.8 2.5 -1.5 0.4 0.4 -0.7 2 -2.5 3.6 -1.9 1.8 -3.1 3.9 -3.1 5.5 0 3.2 0.7 3.3 3.1 0.4 1.1 -1.1 2.2 -1.8 2.5 -1.5 0.4 0.4 -0.7 2 -2.5 3.6 -1.9 1.8 -3.1 3.9 -3.1 5.5 0 3.2 0.7 3.3 3.1 0.4 1.1 -1.1 2.2 -1.8 2.5 -1.5 0.4 0.4 -0.7 2 -2.5 3.6 -1.9 1.8 -3.1 3.9 -3.1 5.5 0 3.2 0.7 3.3 3.1 0.4 1.1 -1.1 2.2 -1.8 2.5 -1.5 0.4 0.4 -0.7 2 -2.5 3.6 -1.9 1.8 -3.1 3.9 -3.1 5.5 0 3.2 0.7 3.3 3.1 0.4 1.1 -1.1 2.2 -1.8 2.5 -1.5 0.4 0.4 -0.7 2 -2.5 3.6 -1.9 1.8 -3.1 3.9 -3.1 5.5 0 3.2 0.7 3.3 3.1 0.4 1.1 -1.1 2.2 -1.8 2.5 -1.5 0.4 0.4 -0.7 2 -2.5 3.6 -1.9 1.8 -3.1 3.9 -3.1 5.5 0 3.2 0.7 3.3 3.1 0.4 1.1 -1.1 2.2 -1.8 2.5 -1.5 0.4 0.4 -0.7 2 -2.5 3.6 -1.9 1.8 -3.1 3.9 -3.1 5.5 0 3.2 0.7 3.3 3.1 0.4 1.1 -1.1 2.2 -1.8 2.5 -1.5 0.4 0.4 -0.7 2 -2.5 3.6 -1.9 1.8 -3.1 3.9 -3.1 5.5 0 3.2 0.7 3.3 3.1 0.4 1.1 -1.1 2.2 -1.8 2.5 -1.5 0.4 0.4 -0.7 2 -2.5 3.6 -1.9 1.8 -3.1 3.9 -3.1 5.5 0 3.2 0.7 3.3 3.1 0.4 1.1 -1.1 2.2 -1.8 2.5 -1.5 0.4 0.4 -0.7 2 -2.5 3.6 -1.9 1.8 -3.1 3.9 -3.1 5.5 0 3.2 0.7 3.3 3.1 0.4 1.1 -1.1 2.2 -1.8 2.5 -1.5 0.4 0.4 -0.7 2 -2.5 3.6 -1.9 1.8 -3.1 3.9 -3.1 5.5 0 3.2 0.7 3.3 3.1 0.4 1.1 -1.1 2.2 -1.8 2.5 -1.5 0.4 0.4 -0.7 2 -2.5 3.6 -1.9 1.8 -3.1 3.9 -3.1 5.5 0 3.2 0.7 3.3 3.1 0.4 1.1 -1.1 2.2 -1.8 2.5 -1.5 0.4 0.4 -0.7 2 -2.5 3.6 -1.9 1.8 -3.1 3.9 -3.1 5.5 0 3.2 0.7 3.3 3.1 0.4 1.1 -1.1 2.2 -1.8 2.5 -1.5 0.4 0.4 -0.7 2 -2.5 3.6 -1.9 1.8 -3.1 3.9 -3.1 5.5 0 3.2 0.7 3.3 3.1 0.4 1.1 -1.1 2.2 -1.8 2.5 -1.5 0.4 0.4 -0.7 2 -2.5 3.6 -1.9 1.8 -3.1 3.9 -3.1 5.5 0 3.2 0.7 3.3 3.1 0.4 1.1 -1.1 2.2 -1.8 2.5 -1.5 0.4 0.4 -0.7 2 -2.5 3.6 -1.9 1.8 -3.1 3.9 -3.1 5.5 0 3.2 0.7 3.3 3.1 0.4 1.1 -1.1 2.2 -1.8 2.5 -1.5 0.4 0.4 -0.7 2 -2.5 3.6 -1.9 1.8 -3.1 3.9 -3.1 5.5 0 3.2 0.7 3.3 3.1 0.4 1.1 -1.1 2.2 -1.8 2.5 -1.5 0.4 0.4 -0.7 2 -2.5 3.6 -1.9 1.8 -3.1 3.9 -3.1 5.5 0 3.2 0.7 3.3 3.1 0.4 1.1 -1.1 2.2 -1.8 2.5 -1.5 0.4 0.4 -0.7 2 -2.5 3.6 -1.9 1.8 -3.1 3.9 -3.1 5.5 0 3.2 0.7 3.3 3.1 0.4 1.1 -1.1 2.2 -1.8 2.5 -1.5 0.4 0.4 -0.7 2 -2.5 3.6 -1.9 1.8 -3.1 3.9 -3.1 5.5 0 3.2 0.7 3.3 3.1 0.4 1.1 -1.1 2.2 -1.8 2.5 -1.5 0.4 0.4 -0.7 2 -2.5 3.6 -1.9 1.8 -3.1 3.9 -3.1 5.5 0 3.2 0.7 3.3 3.1 0.4 1.1 -1.1 2.2 -1.8 2.5 -1.5 0.4 0.4 -0.7 2 -2.5 3.6 -1.9 1.8 -3.1 3.9 -3.1 5.5 0 3.2 0.7 3.3 3.1 0.4 1.1 -1.1 2.2 -1.8 2.5 -1.5 0.4 0.4 -0.7 2 -2.5 3.6 -1.9 1.8 -3.1 3.9 -3.1 5.5 0 3.2 0.7 3.3 3.1 0.4 1.1 -1.1 2.2 -1.8 2.5 -1.5 0.4 0.4 -0.7 2 -2.5 3.6 -1.9 1.8 -3.1 3.9 -3.1 5.5 0 3.2 0.7 3.3 3.1 0.4 1.1 -1.1 2.2 -1.8 2.5 -1.5 0.4 0.4 -0.7 2 -2.5 3.6 -1.9 1.8 -3.1 3.9 -3.1 5.5 0 3.2 0.7 3.3 3.1 0.4 1.1 -1.1 2.2 -1.8 2.5 -1.5 0.4 0.4 -0.7 2 -2.5 3.6 -1.9 1.8 -3.1 3.9 -3.1 5.5 0 3.2 0.7 3.3 3.1 0.4 1.1 -1.1 2.2 -1.8 2.5 -1.5 0.4 0.4 -0.7 2 -2.5 3.6 -1.9 1.8 -3.1 3.9 -3.1 5.5 0 3.2 0.7 3.3 3.1 0.4 1.1 -1.1 2.2 -1.8 2.5 -1.5 0.4 0.4 -0.7 2 -2.5 3.6 -1.9 1.8 -3.1 3.9 -3.1 5.5 0 3.2 0.7 3.3 3.1 0.4 1.1 -1.1 2.2 -1.8 2.5 -1.5 0.4 0.4 -0.7 2 -2.5 3.6 -1.9 1.8 -3.1 3.9 -3.1 5.5 0 3.2 0.7 3.3 3.1 0.4 1.1 -1.1 2.2 -1.8 2.5 -1.5 0.4 0.4 -0.7 2 -2.5 3.6 -1.9 1.8 -3.1 3.9 -3.1 5.5 0 3.2 0.7 3.3 3.1 0.4 1.1 -1.1 2.2 -1.8 2.5 -1.5 0.4 0.4 -0.7 2 -2.5 3.6 -1.9 1.8 -3.1 3.9 -3.1 5.5 0 3.2 0.7 3.3 3.1 0.4 1.1 -1.1 2.2 -1.8 2.5 -1.5 0.4 0.4 -0.7 2 -2.5 3.6 -1.9 1.8 -3.1 3.9 -3.1 5.5 0 3.2 0.7 3.3 3.1 0.4 1.1 -1.1 2.2 -1.8 2.5 -1.5 0.4 0.4 -0.7 2 -2.5 3.6 -1.9 1.8 -3.1 3.9 -3.1 5.5 0 3.2 0.7 3.3 3.1 0.4 1.1 -1.1 2.2 -1.8 2.5 -1.5 0.4 0.4 -0.7 2 -2.5 3.6 -1.9 1.8 -3.1 3.9 -3.1 5.5 0 3.2 0.7 3.3 3.1 0.4 1.1 -1.1 2.2 -1.8 2.5 -1.5 0.4 0.4 -0.7 2 -2.5 3.6 -1.9 1.8 -3.1 3.9 -3.1 5.5 0 3.2 0.7 3.3 3.1 0.4 1.1 -1.1 2.2 -1.8 2.5 -1.5 0.4 0.4 -0.7 2 -2.5 3.6 -1.9 1.8 -3.1 3.9 -3.1 5.5 0 3.2 0.7 3.3 3.1 0.4 1.1 -1.1 2.2 -1.8 2.5 -1.5 0.4 0.4 -0.7 2 -2.5 3.6 -1.9 1.8 -3.1 3.9 -3.1 5.5 0 3.2 0.7 3.3 3.1 0.4 1.1 -1.1 2.2 -1.8 2.5 -1.5 0.4 0.4 -0.7 2 -2.5 3.6 -1.9 1.8 -3.1 3.9 -3.1 5.5 0 3.2 0.7 3.3 3.1 0.4 1.1 -1.1 2.2 -1.8 2.5 -1.5 0.4 0.4 -0.7 2 -2.5 3.6 -1.9 1.8 -3.1 3.9 -3.1 5.5 0 3.2 0.7 3.3 3.1 0.4 1.1 -1.1 2.2 -1.8 2.5 -1.5 0.4 0.4 -0.7 2 -2.5 3.6 -1.9 1.8 -3.1 3.9 -3.1 5.5 0 3.2 0.7 3.3 3.1 0.4 1.1 -1.1 2.2 -1.8 2.5 -1.5 0.4 0.4 -0.7 2 -2.5 3.6 -1.9 1.8 -3.1 3.9 -3.1 5.5 0 3.2 0.7 3.3 3.1 0.4 1.1 -1.1 2.2 -1.8 2.5 -1.5 0.4 0.4 -0.7 2 -2.5 3.6 -1.9 1.8 -3.1 3.9 -3.1 5.5 0 3.2 0.7 3.3 3.1 0.4 1.1 -1.1 2.2 -1.8 2.5 -1.5 0.4 0.4 -0.7 2 -2.5 3.6 -1.9 1.8 -3.1 3.9 -3.1 5.5 0 3.2 0.7 3.3 3.1 0.4 1.1 -1.1 2.2 -1.8 2.5 -1.5 0.4 0.4 -0.7 2 -2.5 3.6 -1.9 1.8 -3.1 3.9 -3.1 5.5 0 3.2 0.7 3.3 3.1 0.4 1.1 -1.1 2.2 -1.8 2.5 -1.5 0.4 0.4 -0.7 2 -2.5 3.6 -1.9 1.8 -3.1 3.9 -3.1 5.5 0 3.2 0.7 3.3 3.1 0.4 1.1 -1.1 2.2 -1.8 2.5 -1.5 0.4 0.4 -0.7 2 -2.5 3.6 -1.9 1.8 -3.1 3.9 -3.1 5.5 0 3.2 0.7 3.3 3.1 0.4 1.1 -1.1 2.2 -1.8 2.5 -1.5 0.4 0.4 -0.7 2 -2.5 3.6 -1.9 1.8 -3.1 3.9 -3.1 5.5 0 3.2 0.7 3.3 3.1 0.4 1.1 -1.1 2.2 -1.8 2.5 -1.5 0.4 0.4 -0.7 2 -2.5 3.6 -1.9 1.8 -3.1 3.9 -3.1 5.5 0 3.2 0.7 3.3 3.1 0.4 1.1 -1.1 2.2 -1.8 2.5 -1.5 0.4 0.4 -0.7 2 -2.5 3.6 -1.9 1.8 -3.1 3.9 -3.1 5.5 0 3.2 0.7 3.3 3.1 0.4 1.1 -1.1 2.2 -1.8 2.5 -1.5 0.4 0.4 -0.7 2 -2.5 3.6 -1.9 1.8 -3.1 3.9 -3.1 5.5 0 3.2 0.7 3.3 3.1 0.4 1.1 -1.1 2.2 -1.8 2.5 -1.5 0.4 0.4 -0.7 2 -2.5 3.6 -1.9 1.8 -3.1 3.9 -3.1 5.5 0 3.2 0.7 3.3 3.1 0.4 1.1 -1.1 2.2 -1.8 2.5 -1.5 0.4 0.4 -0.7 2 -2.5 3.6 -1.9 1.8 -3.1 3.9 -3.1 5.5 0 3.2 0.7 3.3 3.1 0.4 1.1 -1.1 2.2 -1.8 2.5 -1.5 0.4 0.4 -0.7 2 -2.5 3.6 -1.9 1.8 -3.1 3.9 -3.1 5.5 0 3.2 0.7 3.3 3.1 0.4 1.1 -1.1 2.2 -1.8 2.5 -1.5 0.4 0.4 -0.7 2 -2.5 3.6 -1.9 1.8 -3.1 3.9 -3.1 5.5 0 3.2 0.7 3.3 3.1 0.4 1.1 -1.1 2.2 -1.8 2.5 -1.5 0.4 0.4 -0.7 2 -2.5 3.6 -1.9 1.8 -3.1 3.9 -3.1 5.5 0 3.2 0.7 3.3 3.1 0.4 1.1 -1.1 2.2 -1.8 2.5 -1.5 0.4 0.4 -0.7 2 -2.5 3.6 -1.9 1.8 -3.1 3.9 -3.1 5.5 0 3.2 0.7 3.3 3.1 0.4 1.1 -1.1 2.2 -1.8 2.5 -1.5 0.4 0.4 -0.7 2 -2.5 3.6 -1.9 1.8 -3.1 3.9 -3.1 5.5 0 3.2 0.7 3.3 3.1 0.4 1.1 -1.1 2.2 -1.8 2.5 -1.5 0.4 0.4 -0.7 2 -2.5 3.6 -1.9 1.8 -3.1 3.9 -3.1 5.5 0 3.2 0.7 3.3 3.1 0.4 1.1 -1.1 2.2 -1.8 2.5 -1.5 0.4 0.4 -0.7 2 -2.5 3.6 -1.9 1.8 -3.1 3.9 -3.1 5.5 0 3.2 0.7 3.3 3.1 0.4 1.1 -1.1 2.2 -1.8 2.5 -1.5 0.4 0.4 -0.7 2 -2.5 3.6 -1.9 1.8 -3.1 3.9 -3.1 5.5 0 3.2 0.7 3.3 3.1 0.4 1.1 -1.1 2.2 -1.8 2.5 -1.5 0.4 0.4 -0.7 2 -2.5 3.6 -1.9 1.8 -3.1 3.9 -3.1 5.5 0 3.2 0.7 3.3 3.1 0.4 1.1 -1.1 2.2 -1.8 2.5 -1.5 0.4 0.4 -0.7 2 -2.5 3.6 -1.9 1.8 -3.1 3.9 -3.1 5.5 0 3.2 0.7 3.3 3.1 0.4 1.1 -1.1 2.2 -1.8 2.5 -1.5 0.4 0.4 -0.7 2 -2.5 3.6 -1.9 1.8 -3.1 3.9 -3.1 5.5 0 3.2 0.7 3.3 3.1 0.4 1.1 -1.1 2.2 -1.8 2.5 -1.5 0.4 0.4 -0.7 2 -2.5 3.6 -1.9 1.8 -3.1 3.9 -3.1 5.5 0 3.2 0.7 3.3 3.1 0.4 1.1 -1.1 2.2 -1.8 2.5 -1.5 0.4 0.4 -0.7 2 -2.5 3.6 -1.9 1.8 -3.1 3.9 -3.1 5.5 0 3.2 0.7 3.3 3.1 0.4 1.1 -1.1 2.2 -1.8 2.5 -1.5 0.4 0.4 -0.7 2 -2.5 3.6 -1.9 1.8 -3.1 3.9 -3.1 5.5 0 3.2 0.7 3.3 3.1 0.4 1.1 -1.1 2.2 -1.8 2.5 -1.5 0.4 0.4 -0.7 2 -2.5 3.6 -1.9 1.8 -3.1 3.9 -3.1 5.5 0 3.2 0.7 3.3 3.1 0.4 1.1 -1.1 2.2 -1.9 2.5 -1.5 1 1 -4.4 5.7 -6.6 5.7 l-2 0 0 -298.5z"/>
  <path d="M399 192.5 c0 -1 192 -192.5 193 -192.5 0.6 0 -42.4 43.4 -95.5 96.5 -53.1 53.1 -96.7 96.5 -97 96.5 -0.3 0 -0.5 -0.2 -0.5 -0.5z"/>
  <path d="M399 184.5 c0 -1 184 -184.5 185 -184.5 0.6 0 -40.6 41.6 -91.5 92.5 -50.9 50.9 -92.7 92.5 -93 92.5 -0.3 0 -0.5 -0.2 -0.5 -0.5z"/>
  <path d="M399 176.5 c0 -1 176 -176.5 177 -176.5 0.6 0 -38.8 39.8 -87.5 88.5 -48.7 48.7 -88.7 88.5 -89 88.5 -0.3 0 -0.5 -0.2 -0.5 -0.5z"/>
  <path d="M949 173.5 c0 -0.8 -0.7 -1.5 -1.5 -1.5 -1.3 0 -1.5 -4 -1.5 -30 l0 -30 3 0 3 0 0 31.5 c0 27.3 -0.2 31.5 -1.5 31.5 -0.8 0 -1.5 -0.7 -1.5 -1.5z"/>
  <path d="M399 168.5 c0 -1 168 -168.5 169 -168.5 0.6 0 -37 38 -83.5 84.5 -46.5 46.5 -84.7 84.5 -85 84.5 -0.3 0 -0.5 -0.2 -0.5 -0.5z"/>
  <path d="M399 160.5 c0 -1 160 -160.5 161 -160.5 0.6 0 -35.2 36.2 -79.5 80.5 -44.3 44.3 -80.7 80.5 -81 80.5 -0.3 0 -0.5 -0.2 -0.5 -0.5z"/>
  <path d="M399 152.5 c0 -1 152 -152.5 153 -152.5 0.6 0 -33.4 34.4 -75.5 76.5 -42.1 42.1 -76.7 76.5 -77 76.5 -0.3 0 -0.5 -0.2 -0.5 -0.5z"/>
  <path d="M399 144.5 c0 -1 144 -144.5 145 -144.5 0.6 0 -31.6 32.6 -71.5 72.5 -39.9 39.9 -72.7 72.5 -73 72.5 -0.3 0 -0.5 -0.2 -0.5 -0.5z"/>
  <path d="M399 136.5 c0 -1 136 -136.5 137 -136.5 0.6 0 -29.8 30.8 -67.5 68.5 -37.7 37.7 -68.7 68.5 -69 68.5 -0.3 0 -0.5 -0.2 -0.5 -0.5z"/>
  <path d="M399 128.5 c0 -1 128 -128.5 129 -128.5 0.6 0 -28 29 -63.5 64.5 -35.5 35.5 -64.7 64.5 -65 64.5 -0.3 0 -0.5 -0.2 -0.5 -0.5z"/>
  <path d="M399 120.5 c0 -1 120 -120.5 121 -120.5 0.6 0 -26.2 27.2 -59.5 60.5 -33.3 33.3 -60.7 60.5 -61 60.5 -0.3 0 -0.5 -0.2 -0.5 -0.5z"/>
  <path d="M399 112.5 c0 -1 112 -112.5 113 -112.5 0.6 0 -24.4 25.4 -55.5 56.5 -31.1 31.1 -56.7 56.5 -57 56.5 -0.3 0 -0.5 -0.2 -0.5 -0.5z"/>
  <path d="M399 104.5 c0 -1 104 -104.5 105 -104.5 0.6 0 -22.6 23.6 -51.5 52.5 -28.9 28.9 -52.7 52.5 -53 52.5 -0.3 0 -0.5 -0.2 -0.5 -0.5z"/>
  <path d="M399 96.5 c0 -1 96 -96.5 97 -96.5 0.6 0 -20.8 21.8 -47.5 48.5 -26.7 26.7 -48.7 48.5 -49 48.5 -0.3 0 -0.5 -0.2 -0.5 -0.5z"/>
  <path d="M399 88.5 c0 -1 88 -88.5 89 -88.5 0.6 0 -19 20 -43.5 44.5 -24.5 24.5 -44.7 44.5 -45 44.5 -0.3 0 -0.5 -0.2 -0.5 -0.5z"/>
  <path d="M399 80.5 c0 -1 80 -80.5 81 -80.5 0.6 0 -17.2 18.2 -39.5 40.5 -22.3 22.3 -40.7 40.5 -41 40.5 -0.3 0 -0.5 -0.2 -0.5 -0.5z"/>
  <path d="M979 39.5 l0 -39.5 2.5 0 2.5 0 0 39.5 0 39.5 -2.5 0 -2.5 0 0 -39.5z"/>
  <path d="M399 72.5 c0 -1 72 -72.5 73 -72.5 0.6 0 -15.4 16.4 -35.5 36.5 -20.1 20.1 -36.7 36.5 -37 36.5 -0.3 0 -0.5 -0.2 -0.5 -0.5z"/>
  <path d="M399 64.5 c0 -1 64 -64.5 65 -64.5 0.6 0 -13.6 14.6 -31.5 32.5 -17.9 17.9 -32.7 32.5 -33 32.5 -0.3 0 -0.5 -0.2 -0.5 -0.5z"/>
  <path d="M399 56.5 c0 -1 56 -56.5 57 -56.5 0.6 0 -11.8 12.8 -27.5 28.5 -15.7 15.7 -28.7 28.5 -29 28.5 -0.3 0 -0.5 -0.2 -0.5 -0.5z"/>
  <path d="M399 48.5 c0 -1 48 -48.5 49 -48.5 0.6 0 -10 11 -23.5 24.5 -13.5 13.5 -24.7 24.5 -25 24.5 -0.3 0 -0.5 -0.2 -0.5 -0.5z"/>
  <path d="M399 40.5 c0 -1 40 -40.5 41 -40.5 0.6 0 -8.2 9.2 -19.5 20.5 -19.1 19.1 -21.5 21.3 -21.5 20z"/>
  <path d="M399 32.5 c0 -1 32 -32.5 33 -32.5 0.6 0 -6.4 7.4 -15.5 16.5 -15.4 15.4 -17.5 17.3 -17.5 16z"/>
  <path d="M399 24.5 c0 -1 24 -24.5 25 -24.5 0.6 0 -4.6 5.6 -11.5 12.5 -11.7 11.7 -13.5 13.3 -13.5 12z"/>
  <path d="M399 16.5 c0 -1 16.1 -16.5 17.1 -16.5 0.5 0 -2.9 3.8 -7.6 8.5 -8 8 -9.5 9.3 -9.5 8z"/>
  <path d="M399 8.4 c0 -0.9 8.1 -8.4 9.1 -8.4 0.5 0 -1.1 2 -3.5 4.5 -4.4 4.3 -5.6 5.2 -5.6 3.9z"/>
 </g>
 <g fill="#000099">
  <path d="M393 595 l0 -396 4.5 0 4.5 0 0 298.5 0 298.5 90.5 0 c79.8 0 90.5 0.2 90.5 1.5 0 0.8 -0.7 1.5 -1.5 1.5 -1.3 0 -1.5 11.3 -1.5 96 l0 96 -93.5 0 -93.5 0 0 -396z"/>
  <path d="M963 152 l0 -40 3 0 3 0 0 40 0 40 -3 0 -3 0 0 -40z"/>
  <path d="M942 39.5 l0 -39.5 8.5 0 8.5 0 0 39.5 0 39.5 -8.5 0 -8.5 0 0 -39.5z"/>
 </g>
 <g fill="#006633">
  <path d="M577 499 l0 -300 8 0 8 0 0 300 0 300 -8 0 -8 0 0 -300z"/>
  <path d="M960 96 c0 -2.2 0.5 -4 1 -4 0.6 0 1 1.8 1 4 0 2.2 -0.4 4 -1 4 -0.5 0 -1 -1.8 -1 -4z"/>
  <path d="M964.3 96 c0 -2.5 0.2 -3.5 0.4 -2.2 0.2 1.2 0.2 3.2 0 4.5 -0.2 1.2 -0.4 0.2 -0.4 -2.3z"/>
 </g>
 <g fill="#00007a">
  <path d="M941 39.5 c0 -38.8 0 -39.5 2 -39.5 2 0 2 0.7 2 39.5 0 38.8 0 39.5 -2 39.5 -2 0 -2 -0.7 -2 -39.5z"/>
 </g>
 <g fill="#00005c">
  <path d="M949 180.5 l0 -11.5 5 0 5 0 0 -28.5 0 -28.5 3.5 0 3.5 0 0 40 0 40 -8.5 0 -8.5 0 0 -11.5z"/>
 </g>
 <g fill="#00001f">
  <path d="M399 499 l0 -300 90.5 0 c89.8 0 90.5 0 90.6 2 0 1.1 0.1 135.7 0.1 299 0 163.4 -0.1 297.5 -0.1 298 -0.1 0.7 -31 1 -90.6 1 l-90.5 0 0 -300z"/>
  <path d="M585 798.5 c0 -1.1 7.1 -7.7 7.7 -7.2 0.3 0.3 -1.1 2.2 -3.1 4.1 -3.4 3.4 -4.6 4.2 -4.6 3.1z"/>
  <path d="M581 794.5 c0 -1 11.2 -11.7 11.7 -11.2 0.3 0.3 -2 3.1 -5.1 6.1 -5.2 5.3 -6.6 6.3 -6.6 5.1z"/>
  <path d="M581 786.5 c0 -1 11.2 -11.7 11.7 -11.2 0.3 0.3 -2 3.1 -5.1 6.1 -5.2 5.3 -6.6 6.3 -6.6 5.1z"/>
  <path d="M581 778.5 c0 -1 11.2 -11.7 11.7 -11.2 0.3 0.3 -2 3.1 -5.1 6.1 -5.2 5.3 -6.6 6.3 -6.6 5.1z"/>
  <path d="M581 770.5 c0 -1 11.2 -11.7 11.7 -11.2 0.3 0.3 -2 3.1 -5.1 6.1 -5.2 5.3 -6.6 6.3 -6.6 5.1z"/>
  <path d="M581 762.5 c0 -1 11.2 -11.7 11.7 -11.2 0.3 0.3 -2 3.1 -5.1 6.1 -5.2 5.3 -6.6 6.3 -6.6 5.1z"/>
  <path d="M581 754.5 c0 -1 11.2 -11.7 11.7 -11.2 0.3 0.3 -2 3.1 -5.1 6.1 -5.2 5.3 -6.6 6.3 -6.6 5.1z"/>
  <path d="M581 746.5 c0 -1 11.2 -11.7 11.7 -11.2 0.3 0.3 -2 3.1 -5.1 6.1 -5.2 5.3 -6.6 6.3 -6.6 5.1z"/>
  <path d="M581 738.5 c0 -1 11.2 -11.7 11.7 -11.2 0.3 0.3 -2 3.1 -5.1 6.1 -5.2 5.3 -6.6 6.3 -6.6 5.1z"/>
  <path d="M581 730.5 c0 -1 11.2 -11.7 11.7 -11.2 0.3 0.3 -2 3.1 -5.1 6.1 -5.2 5.3 -6.6 6.3 -6.6 5.1z"/>
  <path d="M581 722.5 c0 -1 11.2 -11.7 11.7 -11.2 0.3 0.3 -2 3.1 -5.1 6.1 -5.2 5.3 -6.6 6.3 -6.6 5.1z"/>
  <path d="M581 714.5 c0 -1 11.2 -11.7 11.7 -11.2 0.3 0.3 -2 3.1 -5.1 6.1 -5.2 5.3 -6.6 6.3 -6.6 5.1z"/>
  <path d="M581 706.5 c0 -1 11.2 -11.7 11.7 -11.2 0.3 0.3 -2 3.1 -5.1 6.1 -5.2 5.3 -6.6 6.3 -6.6 5.1z"/>
  <path d="M581 698.5 c0 -1 11.2 -11.7 11.7 -11.2 0.3 0.3 -2 3.1 -5.1 6.1 -5.2 5.3 -6.6 6.3 -6.6 5.1z"/>
  <path d="M581 690.5 c0 -1 11.2 -11.7 11.7 -11.2 0.3 0.3 -2 3.1 -5.1 6.1 -5.2 5.3 -6.6 6.3 -6.6 5.1z"/>
  <path d="M581 682.5 c0 -1 11.2 -11.7 11.7 -11.2 0.3 0.3 -2 3.1 -5.1 6.1 -5.2 5.3 -6.6 6.3 -6.6 5.1z"/>
  <path d="M581 674.5 c0 -1 11.2 -11.7 11.7 -11.2 0.3 0.3 -2 3.1 -5.1 6.1 -5.2 5.3 -6.6 6.3 -6.6 5.1z"/>
  <path d="M581 666.5 c0 -1 11.2 -11.7 11.7 -11.2 0.3 0.3 -2 3.1 -5.1 6.1 -5.2 5.3 -6.6 6.3 -6.6 5.1z"/>
  <path d="M581 658.5 c0 -1 11.2 -11.7 11.7 -11.2 0.3 0.3 -2 3.1 -5.1 6.1 -5.2 5.3 -6.6 6.3 -6.6 5.1z"/>
  <path d="M581 650.5 c0 -1 11.2 -11.7 11.7 -11.2 0.3 0.3 -2 3.1 -5.1 6.1 -5.2 5.3 -6.6 6.3 -6.6 5.1z"/>
  <path d="M581 642.5 c0 -1 11.2 -11.7 11.7 -11.2 0.3 0.3 -2 3.1 -5.1 6.1 -5.2 5.3 -6.6 6.3 -6.6 5.1z"/>
  <path d="M581 634.5 c0 -1 11.2 -11.7 11.7 -11.2 0.3 0.3 -2 3.1 -5.1 6.1 -5.2 5.3 -6.6 6.3 -6.6 5.1z"/>
  <path d="M581 626.5 c0 -1 11.2 -11.7 11.7 -11.2 0.3 0.3 -2 3.1 -5.1 6.1 -5.2 5.3 -6.6 6.3 -6.6 5.1z"/>
  <path d="M581 618.5 c0 -1 11.2 -11.7 11.7 -11.2 0.3 0.3 -2 3.1 -5.1 6.1 -5.2 5.3 -6.6 6.3 -6.6 5.1z"/>
  <path d="M581 610.5 c0 -1 11.2 -11.7 11.7 -11.2 0.3 0.3 -2 3.1 -5.1 6.1 -5.2 5.3 -6.6 6.3 -6.6 5.1z"/>
  <path d="M581 602.5 c0 -1 11.2 -11.7 11.7 -11.2 0.3 0.3 -2 3.1 -5.1 6.1 -5.2 5.3 -6.6 6.3 -6.6 5.1z"/>
  <path d="M581 594.5 c0 -1 11.2 -11.7 11.7 -11.2 0.3 0.3 -2 3.1 -5.1 6.1 -5.2 5.3 -6.6 6.3 -6.6 5.1z"/>
  <path d="M581 586.5 c0 -1 11.2 -11.7 11.7 -11.2 0.3 0.3 -2 3.1 -5.1 6.1 -5.2 5.3 -6.6 6.3 -6.6 5.1z"/>
  <path d="M581 578.5 c0 -1 11.2 -11.7 11.7 -11.2 0.3 0.3 -2 3.1 -5.1 6.1 -5.2 5.3 -6.6 6.3 -6.6 5.1z"/>
  <path d="M581 570.5 c0 -1 11.2 -11.7 11.7 -11.2 0.3 0.3 -2 3.1 -5.1 6.1 -5.2 5.3 -6.6 6.3 -6.6 5.1z"/>
  <path d="M581 562.5 c0 -1 11.2 -11.7 11.7 -11.2 0.3 0.3 -2 3.1 -5.1 6.1 -5.2 5.3 -6.6 6.3 -6.6 5.1z"/>
  <path d="M581 554.5 c0 -1 11.2 -11.7 11.7 -11.2 0.3 0.3 -2 3.1 -5.1 6.1 -5.2 5.3 -6.6 6.3 -6.6 5.1z"/>
  <path d="M581 546.5 c0 -1 11.2 -11.7 11.7 -11.2 0.3 0.3 -2 3.1 -5.1 6.1 -5.2 5.3 -6.6 6.3 -6.6 5.1z"/>
  <path d="M581 538.5 c0 -1 11.2 -11.7 11.7 -11.2 0.3 0.3 -2 3.1 -5.1 6.1 -5.2 5.3 -6.6 6.3 -6.6 5.1z"/>
  <path d="M581 530.5 c0 -1 11.2 -11.7 11.7 -11.2 0.3 0.3 -2 3.1 -5.1 6.1 -5.2 5.3 -6.6 6.3 -6.6 5.1z"/>
  <path d="M581 522.5 c0 -1 11.2 -11.7 11.7 -11.2 0.3 0.3 -2 3.1 -5.1 6.1 -5.2 5.3 -6.6 6.3 -6.6 5.1z"/>
  <path d="M581 514.5 c0 -1 11.2 -11.7 11.7 -11.2 0.3 0.3 -2 3.1 -5.1 6.1 -5.2 5.3 -6.6 6.3 -6.6 5.1z"/>
  <path d="M581 506.5 c0 -1 11.2 -11.7 11.7 -11.2 0.3 0.3 -2 3.1 -5.1 6.1 -5.2 5.3 -6.6 6.3 -6.6 5.1z"/>
  <path d="M581 498.5 c0 -1 11.2 -11.7 11.7 -11.2 0.3 0.3 -2 3.1 -5.1 6.1 -5.2 5.3 -6.6 6.3 -6.6 5.1z"/>
  <path d="M581 490.5 c0 -1 11.2 -11.7 11.7 -11.2 0.3 0.3 -2 3.1 -5.1 6.1 -5.2 5.3 -6.6 6.3 -6.6 5.1z"/>
  <path d="M581 482.5 c0 -1 11.2 -11.7 11.7 -11.2 0.3 0.3 -2 3.1 -5.1 6.1 -5.2 5.3 -6.6 6.3 -6.6 5.1z"/>
  <path d="M581 474.5 c0 -1 11.2 -11.7 11.7 -11.2 0.3 0.3 -2 3.1 -5.1 6.1 -5.2 5.3 -6.6 6.3 -6.6 5.1z"/>
  <path d="M581 466.5 c0 -1 11.2 -11.7 11.7 -11.2 0.3 0.3 -2 3.1 -5.1 6.1 -5.2 5.3 -6.6 6.3 -6.6 5.1z"/>
  <path d="M581 458.5 c0 -1 11.2 -11.7 11.7 -11.2 0.3 0.3 -2 3.1 -5.1 6.1 -5.2 5.3 -6.6 6.3 -6.6 5.1z"/>
  <path d="M581 450.5 c0 -1 11.2 -11.7 11.7 -11.2 0.3 0.3 -2 3.1 -5.1 6.1 -5.2 5.3 -6.6 6.3 -6.6 5.1z"/>
  <path d="M581 442.5 c0 -1 11.2 -11.7 11.7 -11.2 0.3 0.3 -2 3.1 -5.1 6.1 -5.2 5.3 -6.6 6.3 -6.6 5.1z"/>
  <path d="M581 434.5 c0 -1 11.2 -11.7 11.7 -11.2 0.3 0.3 -2 3.1 -5.1 6.1 -5.2 5.3 -6.6 6.3 -6.6 5.1z"/>
  <path d="M581 426.5 c0 -1 11.2 -11.7 11.7 -11.2 0.3 0.3 -2 3.1 -5.1 6.1 -5.2 5.3 -6.6 6.3 -6.6 5.1z"/>
  <path d="M581 418.5 c0 -1 11.2 -11.7 11.7 -11.2 0.3 0.3 -2 3.1 -5.1 6.1 -5.2 5.3 -6.6 6.3 -6.6 5.1z"/>
  <path d="M581 410.5 c0 -1 11.2 -11.7 11.7 -11.2 0.3 0.3 -2 3.1 -5.1 6.1 -5.2 5.3 -6.6 6.3 -6.6 5.1z"/>
  <path d="M581 402.5 c0 -1 11.2 -11.7 11.7 -11.2 0.3 0.3 -2 3.1 -5.1 6.1 -5.2 5.3 -6.6 6.3 -6.6 5.1z"/>
  <path d="M581 394.5 c0 -1 11.2 -11.7 11.7 -11.2 0.3 0.3 -2 3.1 -5.1 6.1 -5.2 5.3 -6.6 6.3 -6.6 5.1z"/>
  <path d="M581 386.5 c0 -1 11.2 -11.7 11.7 -11.2 0.3 0.3 -2 3.1 -5.1 6.1 -5.2 5.3 -6.6 6.3 -6.6 5.1z"/>
  <path d="M581 378.5 c0 -1 11.2 -11.7 11.7 -11.2 0.3 0.3 -2 3.1 -5.1 6.1 -5.2 5.3 -6.6 6.3 -6.6 5.1z"/>
  <path d="M581 370.5 c0 -1 11.2 -11.7 11.7 -11.2 0.3 0.3 -2 3.1 -5.1 6.1 -5.2 5.3 -6.6 6.3 -6.6 5.1z"/>
  <path d="M581 362.5 c0 -1 11.2 -11.7 11.7 -11.2 0.3 0.3 -2 3.1 -5.1 6.1 -5.2 5.3 -6.6 6.3 -6.6 5.1z"/>
  <path d="M581 354.5 c0 -1 11.2 -11.7 11.7 -11.2 0.3 0.3 -2 3.1 -5.1 6.1 -5.2 5.3 -6.6 6.3 -6.6 5.1z"/>
  <path d="M581 346.5 c0 -1 11.2 -11.7 11.7 -11.2 0.3 0.3 -2 3.1 -5.1 6.1 -5.2 5.3 -6.6 6.3 -6.6 5.1z"/>
  <path d="M581 338.5 c0 -1 11.2 -11.7 11.7 -11.2 0.3 0.3 -2 3.1 -5.1 6.1 -5.2 5.3 -6.6 6.3 -6.6 5.1z"/>
  <path d="M581 330.5 c0 -1 11.2 -11.7 11.7 -11.2 0.3 0.3 -2 3.1 -5.1 6.1 -5.2 5.3 -6.6 6.3 -6.6 5.1z"/>
  <path d="M581 322.5 c0 -1 11.2 -11.7 11.7 -11.2 0.3 0.3 -2 3.1 -5.1 6.1 -5.2 5.3 -6.6 6.3 -6.6 5.1z"/>
  <path d="M581 314.5 c0 -1 11.2 -11.7 11.7 -11.2 0.3 0.3 -2 3.1 -5.1 6.1 -5.2 5.3 -6.6 6.3 -6.6 5.1z"/>
  <path d="M581 306.5 c0 -1 11.2 -11.7 11.7 -11.2 0.3 0.3 -2 3.1 -5.1 6.1 -5.2 5.3 -6.6 6.3 -6.6 5.1z"/>
  <path d="M581 298.5 c0 -1 11.2 -11.7 11.7 -11.2 0.3 0.3 -2 3.1 -5.1 6.1 -5.2 5.3 -6.6 6.3 -6.6 5.1z"/>
  <path d="M581 290.5 c0 -1 11.2 -11.7 11.7 -11.2 0.3 0.3 -2 3.1 -5.1 6.1 -5.2 5.3 -6.6 6.3 -6.6 5.1z"/>
  <path d="M581 282.5 c0 -1 11.2 -11.7 11.7 -11.2 0.3 0.3 -2 3.1 -5.1 6.1 -5.2 5.3 -6.6 6.3 -6.6 5.1z"/>
  <path d="M581 274.5 c0 -1 11.2 -11.7 11.7 -11.2 0.3 0.3 -2 3.1 -5.1 6.1 -5.2 5.3 -6.6 6.3 -6.6 5.1z"/>
  <path d="M581 266.5 c0 -1 11.2 -11.7 11.7 -11.2 0.3 0.3 -2 3.1 -5.1 6.1 -5.2 5.3 -6.6 6.3 -6.6 5.1z"/>
  <path d="M581 258.5 c0 -1 11.2 -11.7 11.7 -11.2 0.3 0.3 -2 3.1 -5.1 6.1 -5.2 5.3 -6.6 6.3 -6.6 5.1z"/>
  <path d="M581 250.5 c0 -1 11.2 -11.7 11.7 -11.2 0.3 0.3 -2 3.1 -5.1 6.1 -5.2 5.3 -6.6 6.3 -6.6 5.1z"/>
  <path d="M581 242.5 c0 -1 11.2 -11.7 11.7 -11.2 0.3 0.3 -2 3.1 -5.1 6.1 -5.2 5.3 -6.6 6.3 -6.6 5.1z"/>
  <path d="M581 234.5 c0 -1 11.2 -11.7 11.7 -11.2 0.3 0.3 -2 3.1 -5.1 6.1 -5.2 5.3 -6.6 6.3 -6.6 5.1z"/>
  <path d="M581 226.5 c0 -1 11.2 -11.7 11.7 -11.2 0.3 0.3 -2 3.1 -5.1 6.1 -5.2 5.3 -6.6 6.3 -6.6 5.1z"/>
  <path d="M581 218.5 c0 -1 11.2 -11.7 11.7 -11.2 0.3 0.3 -2 3.1 -5.1 6.1 -5.2 5.3 -6.6 6.3 -6.6 5.1z"/>
  <path d="M581 210.5 c0 -1 11.2 -11.7 11.7 -11.2 0.3 0.3 -2 3.1 -5.1 6.1 -5.2 5.3 -6.6 6.3 -6.6 5.1z"/>
  <path d="M581 202.4 c0 -1 3.1 -3.6 3.7 -3.1 0.3 0.3 -0.2 1.3 -1 2.2 -1.6 1.5 -2.7 1.9 -2.7 0.9z"/>
  <path d="M939 39.5 l0 -39.5 2.5 0 2.5 0 0 39.5 0 39.5 -2.5 0 -2.5 0 0 -39.5z"/>
 </g>
 <g fill="#000013">
  <path d="M401 798.5 c0 -0.3 40.3 -40.8 89.5 -90 49.2 -49.2 89.5 -89.1 89.5 -88.5 0 1 -177.5 179 -178.5 179 -0.3 0 -0.5 -0.2 -0.5 -0.5z"/>
  <path d="M409 798.5 c0 -0.3 38.5 -39 85.5 -86 47 -47 85.5 -85.1 85.5 -84.5 0 1 -169.5 171 -170.5 171 -0.3 0 -0.5 -0.2 -0.5 -0.5z"/>
  <path d="M417 798.5 c0 -0.3 36.7 -37.2 81.5 -82 44.8 -44.8 81.5 -81.1 81.5 -80.5 0 1 -161.5 163 -162.5 163 -0.3 0 -0.5 -0.2 -0.5 -0.5z"/>
  <path d="M425 798.5 c0 -0.3 34.9 -35.4 77.5 -78 42.6 -42.6 77.5 -77.1 77.5 -76.5 0 1 -153.5 155 -154.5 155 -0.3 0 -0.5 -0.2 -0.5 -0.5z"/>
  <path d="M433 798.5 c0 -0.3 33.1 -33.6 73.5 -74 40.4 -40.4 73.5 -73.1 73.5 -72.5 0 1 -145.5 147 -146.5 147 -0.3 0 -0.5 -0.2 -0.5 -0.5z"/>
  <path d="M441 798.5 c0 -0.3 31.3 -31.8 69.5 -70 38.2 -38.2 69.5 -69.1 69.5 -68.5 0 1 -137.5 139 -138.5 139 -0.3 0 -0.5 -0.2 -0.5 -0.5z"/>
  <path d="M449 798.5 c0 -0.3 29.5 -30 65.5 -66 36 -36 65.5 -65.1 65.5 -64.5 0 1 -129.5 131 -130.5 131 -0.3 0 -0.5 -0.2 -0.5 -0.5z"/>
  <path d="M457 798.5 c0 -0.3 27.7 -28.2 61.5 -62 33.8 -33.8 61.5 -61.1 61.5 -60.5 0 1 -121.5 123 -122.5 123 -0.3 0 -0.5 -0.2 -0.5 -0.5z"/>
  <path d="M465 798.5 c0 -0.3 25.9 -26.4 57.5 -58 31.6 -31.6 57.5 -57.1 57.5 -56.5 0 1 -113.5 115 -114.5 115 -0.3 0 -0.5 -0.2 -0.5 -0.5z"/>
  <path d="M473 798.5 c0 -0.3 24.1 -24.6 53.5 -54 29.4 -29.4 53.5 -53.1 53.5 -52.5 0 1 -105.5 107 -106.5 107 -0.3 0 -0.5 -0.2 -0.5 -0.5z"/>
  <path d="M481 798.5 c0 -0.3 22.3 -22.8 49.5 -50 27.2 -27.2 49.5 -49.1 49.5 -48.5 0 1 -97.5 99 -98.5 99 -0.3 0 -0.5 -0.2 -0.5 -0.5z"/>
  <path d="M489 798.5 c0 -0.3 20.5 -21 45.5 -46 25 -25 45.5 -45.1 45.5 -44.5 0 1 -89.5 91 -90.5 91 -0.3 0 -0.5 -0.2 -0.5 -0.5z"/>
  <path d="M497 798.5 c0 -0.3 18.7 -19.2 41.5 -42 22.8 -22.8 41.5 -41.1 41.5 -40.5 0 1 -81.5 83 -82.5 83 -0.3 0 -0.5 -0.2 -0.5 -0.5z"/>
  <path d="M505 798.5 c0 -0.3 16.9 -17.4 37.5 -38 20.6 -20.6 37.5 -37.1 37.5 -36.5 0 1 -73.5 75 -74.5 75 -0.3 0 -0.5 -0.2 -0.5 -0.5z"/>
  <path d="M513 798.5 c0 -0.3 15.1 -15.6 33.5 -34 18.4 -18.4 33.5 -33.1 33.5 -32.5 0 1 -65.5 67 -66.5 67 -0.3 0 -0.5 -0.2 -0.5 -0.5z"/>
  <path d="M521 798.5 c0 -0.3 13.3 -13.8 29.5 -30 16.2 -16.2 29.5 -29.1 29.5 -28.5 0 1 -57.5 59 -58.5 59 -0.3 0 -0.5 -0.2 -0.5 -0.5z"/>
  <path d="M529 798.5 c0 -0.3 11.5 -12 25.5 -26 14 -14 25.5 -25.1 25.5 -24.5 0 1 -49.5 51 -50.5 51 -0.3 0 -0.5 -0.2 -0.5 -0.5z"/>
  <path d="M537 798.5 c0 -0.3 9.7 -10.2 21.5 -22 11.8 -11.8 21.5 -21.1 21.5 -20.5 0 1 -41.5 43 -42.5 43 -0.3 0 -0.5 -0.2 -0.5 -0.5z"/>
  <path d="M545 798.5 c0 -0.3 7.9 -8.4 17.5 -18 9.6 -9.6 17.5 -17.1 17.5 -16.5 0 1 -33.5 35 -34.5 35 -0.3 0 -0.5 -0.2 -0.5 -0.5z"/>
  <path d="M553 798.5 c0 -0.3 6.1 -6.6 13.5 -14 7.4 -7.4 13.5 -13.1 13.5 -12.5 0 1 -25.5 27 -26.5 27 -0.3 0 -0.5 -0.2 -0.5 -0.5z"/>
  <path d="M561 798.5 c0 -0.3 4.3 -4.8 9.5 -10 5.2 -5.3 9.5 -9.1 9.5 -8.6 0 1 -17.5 19.1 -18.5 19.1 -0.3 0 -0.5 -0.2 -0.5 -0.5z"/>
  <path d="M569 798.5 c0 -0.3 2.5 -3 5.5 -6 3 -3.1 5.5 -5.1 5.5 -4.6 0 0.5 -2.2 3.2 -4.9 6 -4.6 4.8 -6.1 5.9 -6.1 4.6z"/>
  <path d="M577 798.4 c0 -0.3 0.7 -1.2 1.5 -2 1.6 -1.7 1.8 -1.4 0.9 1 -0.6 1.5 -2.4 2.3 -2.4 1z"/>
  <path d="M399 792.5 c0 -0.3 40.7 -41.2 90.5 -91 49.8 -49.8 90.5 -90.1 90.5 -89.5 0 1 -179.5 181 -180.5 181 -0.3 0 -0.5 -0.2 -0.5 -0.5z"/>
  <path d="M399 784.5 c0 -0.3 40.7 -41.2 90.5 -91 49.8 -49.8 90.5 -90.1 90.5 -89.5 0 1 -179.5 181 -180.5 181 -0.3 0 -0.5 -0.2 -0.5 -0.5z"/>
  <path d="M399 776.5 c0 -0.3 40.7 -41.2 90.5 -91 49.8 -49.8 90.5 -90.1 90.5 -89.5 0 1 -179.5 181 -180.5 181 -0.3 0 -0.5 -0.2 -0.5 -0.5z"/>
  <path d="M399 768.5 c0 -0.3 40.7 -41.2 90.5 -91 49.8 -49.8 90.5 -90.1 90.5 -89.5 0 1 -179.5 181 -180.5 181 -0.3 0 -0.5 -0.2 -0.5 -0.5z"/>
  <path d="M399 760.5 c0 -0.3 40.7 -41.2 90.5 -91 49.8 -49.8 90.5 -90.1 90.5 -89.5 0 1 -179.5 181 -180.5 181 -0.3 0 -0.5 -0.2 -0.5 -0.5z"/>
  <path d="M399 752.5 c0 -0.3 40.7 -41.2 90.5 -91 49.8 -49.8 90.5 -90.1 90.5 -89.5 0 1 -179.5 181 -180.5 181 -0.3 0 -0.5 -0.2 -0.5 -0.5z"/>
  <path d="M399 744.5 c0 -0.3 40.7 -41.2 90.5 -91 49.8 -49.8 90.5 -90.1 90.5 -89.5 0 1 -179.5 181 -180.5 181 -0.3 0 -0.5 -0.2 -0.5 -0.5z"/>
  <path d="M399 736.5 c0 -0.3 40.7 -41.2 90.5 -91 49.8 -49.8 90.5 -90.1 90.5 -89.5 0 1 -179.5 181 -180.5 181 -0.3 0 -0.5 -0.2 -0.5 -0.5z"/>
  <path d="M399 728.5 c0 -0.3 40.7 -41.2 90.5 -91 49.8 -49.8 90.5 -90.1 90.5 -89.5 0 1 -179.5 181 -180.5 181 -0.3 0 -0.5 -0.2 -0.5 -0.5z"/>
  <path d="M399 720.5 c0 -0.3 40.7 -41.2 90.5 -91 49.8 -49.8 90.5 -90.1 90.5 -89.5 0 1 -179.5 181 -180.5 181 -0.3 0 -0.5 -0.2 -0.5 -0.5z"/>
  <path d="M399 712.5 c0 -0.3 40.7 -41.2 90.5 -91 49.8 -49.8 90.5 -90.1 90.5 -89.5 0 1 -179.5 181 -180.5 181 -0.3 0 -0.5 -0.2 -0.5 -0.5z"/>
  <path d="M399 704.5 c0 -0.3 40.7 -41.2 90.5 -91 49.8 -49.8 90.5 -90.1 90.5 -89.5 0 1 -179.5 181 -180.5 181 -0.3 0 -0.5 -0.2 -0.5 -0.5z"/>
  <path d="M399 696.5 c0 -0.3 40.7 -41.2 90.5 -91 49.8 -49.8 90.5 -90.1 90.5 -89.5 0 1 -179.5 181 -180.5 181 -0.3 0 -0.5 -0.2 -0.5 -0.5z"/>
  <path d="M399 688.5 c0 -0.3 40.7 -41.2 90.5 -91 49.8 -49.8 90.5 -90.1 90.5 -89.5 0 1 -179.5 181 -180.5 181 -0.3 0 -0.5 -0.2 -0.5 -0.5z"/>
  <path d="M399 680.5 c0 -0.3 40.7 -41.2 90.5 -91 49.8 -49.8 90.5 -90.1 90.5 -89.5 0 1 -179.5 181 -180.5 181 -0.3 0 -0.5 -0.2 -0.5 -0.5z"/>
  <path d="M399 672.5 c0 -0.3 40.7 -41.2 90.5 -91 49.8 -49.8 90.5 -90.1 90.5 -89.5 0 1 -179.5 181 -180.5 181 -0.3 0 -0.5 -0.2 -0.5 -0.5z"/>
  <path d="M399 664.5 c0 -0.3 40.7 -41.2 90.5 -91 49.8 -49.8 90.5 -90.1 90.5 -89.5 0 1 -179.5 181 -180.5 181 -0.3 0 -0.5 -0.2 -0.5 -0.5z"/>
  <path d="M399 656.5 c0 -0.3 40.7 -41.2 90.5 -91 49.8 -49.8 90.5 -90.1 90.5 -89.5 0 1 -179.5 181 -180.5 181 -0.3 0 -0.5 -0.2 -0.5 -0.5z"/>
  <path d="M399 648.5 c0 -0.3 40.7 -41.2 90.5 -91 49.8 -49.8 90.5 -90.1 90.5 -89.5 0 1 -179.5 181 -180.5 181 -0.3 0 -0.5 -0.2 -0.5 -0.5z"/>
  <path d="M399 640.5 c0 -0.3 40.7 -41.2 90.5 -91 49.8 -49.8 90.5 -90.1 90.5 -89.5 0 1 -179.5 181 -180.5 181 -0.3 0 -0.5 -0.2 -0.5 -0.5z"/>
  <path d="M399 632.5 c0 -0.3 40.7 -41.2 90.5 -91 49.8 -49.8 90.5 -90.1 90.5 -89.5 0 1 -179.5 181 -180.5 181 -0.3 0 -0.5 -0.2 -0.5 -0.5z"/>
  <path d="M399 624.5 c0 -0.3 40.7 -41.2 90.5 -91 49.8 -49.8 90.5 -90.1 90.5 -89.5 0 1 -179.5 181 -180.5 181 -0.3 0 -0.5 -0.2 -0.5 -0.5z"/>
  <path d="M399 616.5 c0 -0.3 40.7 -41.2 90.5 -91 49.8 -49.8 90.5 -90.1 90.5 -89.5 0 1 -179.5 181 -180.5 181 -0.3 0 -0.5 -0.2 -0.5 -0.5z"/>
  <path d="M399 608.5 c0 -0.3 40.7 -41.2 90.5 -91 49.8 -49.8 90.5 -90.1 90.5 -89.5 0 1 -179.5 181 -180.5 181 -0.3 0 -0.5 -0.2 -0.5 -0.5z"/>
  <path d="M399 600.5 c0 -0.3 40.7 -41.2 90.5 -91 49.8 -49.8 90.5 -90.1 90.5 -89.5 0 1 -179.5 181 -180.5 181 -0.3 0 -0.5 -0.2 -0.5 -0.5z"/>
  <path d="M399 592.5 c0 -0.3 40.7 -41.2 90.5 -91 49.8 -49.8 90.5 -90.1 90.5 -89.5 0 1 -179.5 181 -180.5 181 -0.3 0 -0.5 -0.2 -0.5 -0.5z"/>
  <path d="M399 584.5 c0 -0.3 40.7 -41.2 90.5 -91 49.8 -49.8 90.5 -90.1 90.5 -89.5 0 1 -179.5 181 -180.5 181 -0.3 0 -0.5 -0.2 -0.5 -0.5z"/>
  <path d="M399 576.5 c0 -0.3 40.7 -41.2 90.5 -91 49.8 -49.8 90.5 -90.1 90.5 -89.5 0 1 -179.5 181 -180.5 181 -0.3 0 -0.5 -0.2 -0.5 -0.5z"/>
  <path d="M399 568.5 c0 -0.3 40.7 -41.2 90.5 -91 49.8 -49.8 90.5 -90.1 90.5 -89.5 0 1 -179.5 181 -180.5 181 -0.3 0 -0.5 -0.2 -0.5 -0.5z"/>
  <path d="M399 560.5 c0 -0.3 40.7 -41.2 90.5 -91 49.8 -49.8 90.5 -90.1 90.5 -89.5 0 1 -179.5 181 -180.5 181 -0.3 0 -0.5 -0.2 -0.5 -0.5z"/>
  <path d="M399 552.5 c0 -0.3 40.7 -41.2 90.5 -91 49.8 -49.8 90.5 -90.1 90.5 -89.5 0 1 -179.5 181 -180.5 181 -0.3 0 -0.5 -0.2 -0.5 -0.5z"/>
  <path d="M399 544.5 c0 -0.3 40.7 -41.2 90.5 -91 49.8 -49.8 90.5 -90.1 90.5 -89.5 0 1 -179.5 181 -180.5 181 -0.3 0 -0.5 -0.2 -0.5 -0.5z"/>
  <path d="M399 536.5 c0 -0.3 40.7 -41.2 90.5 -91 49.8 -49.8 90.5 -90.1 90.5 -89.5 0 1 -179.5 181 -180.5 181 -0.3 0 -0.5 -0.2 -0.5 -0.5z"/>
  <path d="M399 528.5 c0 -0.3 40.7 -41.2 90.5 -91 49.8 -49.8 90.5 -90.1 90.5 -89.5 0 1 -179.5 181 -180.5 181 -0.3 0 -0.5 -0.2 -0.5 -0.5z"/>
  <path d="M399 520.5 c0 -0.3 40.7 -41.2 90.5 -91 49.8 -49.8 90.5 -90.1 90.5 -89.5 0 1 -179.5 181 -180.5 181 -0.3 0 -0.5 -0.2 -0.5 -0.5z"/>
  <path d="M399 512.5 c0 -0.3 40.7 -41.2 90.5 -91 49.8 -49.8 90.5 -90.1 90.5 -89.5 0 1 -179.5 181 -180.5 181 -0.3 0 -0.5 -0.2 -0.5 -0.5z"/>
  <path d="M399 504.5 c0 -0.3 40.7 -41.2 90.5 -91 49.8 -49.8 90.5 -90.1 90.5 -89.5 0 1 -179.5 181 -180.5 181 -0.3 0 -0.5 -0.2 -0.5 -0.5z"/>
  <path d="M399 496.5 c0 -0.3 40.7 -41.2 90.5 -91 49.8 -49.8 90.5 -90.1 90.5 -89.5 0 1 -179.5 181 -180.5 181 -0.3 0 -0.5 -0.2 -0.5 -0.5z"/>
  <path d="M399 488.5 c0 -0.3 40.7 -41.2 90.5 -91 49.8 -49.8 90.5 -90.1 90.5 -89.5 0 1 -179.5 181 -180.5 181 -0.3 0 -0.5 -0.2 -0.5 -0.5z"/>
  <path d="M399 480.5 c0 -0.3 40.7 -41.2 90.5 -91 49.8 -49.8 90.5 -90.1 90.5 -89.5 0 1 -179.5 181 -180.5 181 -0.3 0 -0.5 -0.2 -0.5 -0.5z"/>
  <path d="M399 472.5 c0 -0.3 40.7 -41.2 90.5 -91 49.8 -49.8 90.5 -90.1 90.5 -89.5 0 1 -179.5 181 -180.5 181 -0.3 0 -0.5 -0.2 -0.5 -0.5z"/>
  <path d="M399 464.5 c0 -0.3 40.7 -41.2 90.5 -91 49.8 -49.8 90.5 -90.1 90.5 -89.5 0 1 -179.5 181 -180.5 181 -0.3 0 -0.5 -0.2 -0.5 -0.5z"/>
  <path d="M399 456.5 c0 -0.3 40.7 -41.2 90.5 -91 49.8 -49.8 90.5 -90.1 90.5 -89.5 0 1 -179.5 181 -180.5 181 -0.3 0 -0.5 -0.2 -0.5 -0.5z"/>
  <path d="M399 448.5 c0 -0.3 40.7 -41.2 90.5 -91 49.8 -49.8 90.5 -90.1 90.5 -89.5 0 1 -179.5 181 -180.5 181 -0.3 0 -0.5 -0.2 -0.5 -0.5z"/>
  <path d="M399 440.5 c0 -0.3 40.7 -41.2 90.5 -91 49.8 -49.8 90.5 -90.1 90.5 -89.5 0 1 -179.5 181 -180.5 181 -0.3 0 -0.5 -0.2 -0.5 -0.5z"/>
  <path d="M399 432.5 c0 -0.3 40.7 -41.2 90.5 -91 49.8 -49.8 90.5 -90.1 90.5 -89.5 0 1 -179.5 181 -180.5 181 -0.3 0 -0.5 -0.2 -0.5 -0.5z"/>
  <path d="M399 424.5 c0 -0.3 40.7 -41.2 90.5 -91 49.8 -49.8 90.5 -90.1 90.5 -89.5 0 1 -179.5 181 -180.5 181 -0.3 0 -0.5 -0.2 -0.5 -0.5z"/>
  <path d="M399 416.5 c0 -0.3 40.7 -41.2 90.5 -91 49.8 -49.8 90.5 -90.1 90.5 -89.5 0 1 -179.5 181 -180.5 181 -0.3 0 -0.5 -0.2 -0.5 -0.5z"/>
  <path d="M399 408.5 c0 -0.3 40.7 -41.2 90.5 -91 49.8 -49.8 90.5 -90.1 90.5 -89.5 0 1 -179.5 181 -180.5 181 -0.3 0 -0.5 -0.2 -0.5 -0.5z"/>
  <path d="M399 400.5 c0 -0.3 40.7 -41.2 90.5 -91 49.8 -49.8 90.5 -90.1 90.5 -89.5 0 1 -179.5 181 -180.5 181 -0.3 0 -0.5 -0.2 -0.5 -0.5z"/>
  <path d="M399 392.5 c0 -0.3 40.7 -41.2 90.5 -91 49.8 -49.8 90.5 -90.1 90.5 -89.5 0 1 -179.5 181 -180.5 181 -0.3 0 -0.5 -0.2 -0.5 -0.5z"/>
  <path d="M399 384.5 c0 -0.3 40.7 -41.2 90.5 -91 49.8 -49.8 90.5 -90.1 90.5 -89.5 0 1 -179.5 181 -180.5 181 -0.3 0 -0.5 -0.2 -0.5 -0.5z"/>
  <path d="M399 376.5 c0 -1 177.2 -177.7 177.7 -177.2 0.5 0.5 -176.2 177.7 -177.2 177.7 -0.3 0 -0.5 -0.2 -0.5 -0.5z"/>
  <path d="M399 368.5 c0 -1 169.2 -169.7 169.7 -169.2 0.5 0.5 -168.2 169.7 -169.2 169.7 -0.3 0 -0.5 -0.2 -0.5 -0.5z"/>
  <path d="M399 360.5 c0 -1 161.2 -161.7 161.7 -161.2 0.5 0.5 -160.2 161.7 -161.2 161.7 -0.3 0 -0.5 -0.2 -0.5 -0.5z"/>
  <path d="M399 352.5 c0 -1 153.2 -153.7 153.7 -153.2 0.5 0.5 -152.2 153.7 -153.2 153.7 -0.3 0 -0.5 -0.2 -0.5 -0.5z"/>
  <path d="M399 344.5 c0 -1 145.2 -145.7 145.7 -145.2 0.5 0.5 -144.2 145.7 -145.2 145.7 -0.3 0 -0.5 -0.2 -0.5 -0.5z"/>
  <path d="M399 336.5 c0 -1 137.2 -137.7 137.7 -137.2 0.5 0.5 -136.2 137.7 -137.2 137.7 -0.3 0 -0.5 -0.2 -0.5 -0.5z"/>
  <path d="M399 328.5 c0 -1 129.2 -129.7 129.7 -129.2 0.5 0.5 -128.2 129.7 -129.2 129.7 -0.3 0 -0.5 -0.2 -0.5 -0.5z"/>
  <path d="M399 320.5 c0 -1 121.2 -121.7 121.7 -121.2 0.5 0.5 -120.2 121.7 -121.2 121.7 -0.3 0 -0.5 -0.2 -0.5 -0.5z"/>
  <path d="M399 312.5 c0 -1 113.2 -113.7 113.7 -113.2 0.5 0.5 -112.2 113.7 -113.2 113.7 -0.3 0 -0.5 -0.2 -0.5 -0.5z"/>
  <path d="M399 304.5 c0 -1 105.2 -105.7 105.7 -105.2 0.5 0.5 -104.2 105.7 -105.2 105.7 -0.3 0 -0.5 -0.2 -0.5 -0.5z"/>
  <path d="M399 296.5 c0 -1 97.2 -97.7 97.7 -97.2 0.5 0.5 -96.2 97.7 -97.2 97.7 -0.3 0 -0.5 -0.2 -0.5 -0.5z"/>
  <path d="M399 288.5 c0 -1 89.2 -89.7 89.7 -89.2 0.5 0.5 -88.2 89.7 -89.2 89.7 -0.3 0 -0.5 -0.2 -0.5 -0.5z"/>
  <path d="M399 280.5 c0 -1 81.2 -81.7 81.7 -81.2 0.5 0.5 -80.2 81.7 -81.2 81.7 -0.3 0 -0.5 -0.2 -0.5 -0.5z"/>
  <path d="M399 272.5 c0 -1 73.2 -73.7 73.7 -73.2 0.5 0.5 -72.2 73.7 -73.2 73.7 -0.3 0 -0.5 -0.2 -0.5 -0.5z"/>
  <path d="M399 264.5 c0 -1 65.2 -65.7 65.7 -65.2 0.5 0.5 -64.2 65.7 -65.2 65.7 -0.3 0 -0.5 -0.2 -0.5 -0.5z"/>
  <path d="M399 256.5 c0 -1 57.2 -57.7 57.7 -57.2 0.5 0.5 -56.2 57.7 -57.2 57.7 -0.3 0 -0.5 -0.2 -0.5 -0.5z"/>
  <path d="M399 248.5 c0 -1 49.2 -49.7 49.7 -49.2 0.5 0.5 -48.2 49.7 -49.2 49.7 -0.3 0 -0.5 -0.2 -0.5 -0.5z"/>
  <path d="M399 240.5 c0 -1 41.2 -41.7 41.7 -41.2 0.5 0.5 -40.2 41.7 -41.2 41.7 -0.3 0 -0.5 -0.2 -0.5 -0.5z"/>
  <path d="M399 232.5 c0 -1 33.2 -33.7 33.7 -33.2 0.5 0.5 -32.2 33.7 -33.2 33.7 -0.3 0 -0.5 -0.2 -0.5 -0.5z"/>
  <path d="M399 224.5 c0 -1 25.2 -25.7 25.7 -25.2 0.5 0.5 -24.2 25.7 -25.2 25.7 -0.3 0 -0.5 -0.2 -0.5 -0.5z"/>
  <path d="M399 216.5 c0 -1 17.2 -17.7 17.7 -17.2 0.5 0.5 -16.2 17.7 -17.2 17.7 -0.3 0 -0.5 -0.2 -0.5 -0.5z"/>
  <path d="M399 208.5 c0 -1 9.1 -9.7 9.7 -9.2 0.3 0.3 -1.6 2.6 -4.1 5.1 -4.3 4.4 -5.6 5.3 -5.6 4.1z"/>
  <path d="M949 142 l0 -30 6.5 0 6.5 0 0 30 0 30 -6.5 0 -6.5 0 0 -30z"/>
 </g>
</svg>