<svg width="86" height="80" viewBox="0 0 86 80" fill="none" xmlns="http://www.w3.org/2000/svg">
<circle cx="50.0587" cy="43.4914" r="35.9413" fill="black"/>
<circle cx="50.0587" cy="43.4914" r="35.4413" stroke="#C4C4C4" stroke-opacity="0.25"/>
<path d="M44.1867 65.448C48.0671 65.448 51.2165 62.2089 51.2165 58.2179V50.9879H44.1867C40.3062 50.9879 37.1569 54.2269 37.1569 58.2179C37.1569 62.2089 40.3062 65.448 44.1867 65.448Z" fill="#0ACF83"/>
<path d="M37.1569 43.7578C37.1569 39.7668 40.3062 36.5277 44.1867 36.5277H51.2165V50.9878H44.1867C40.3062 50.9878 37.1569 47.7488 37.1569 43.7578Z" fill="#A259FF"/>
<path d="M37.1569 29.2976C37.1569 25.3066 40.3062 22.0675 44.1867 22.0675H51.2165V36.5277H44.1867C40.3062 36.5277 37.1569 33.2886 37.1569 29.2976Z" fill="#F24E1E"/>
<path d="M51.2164 22.0675H58.2462C62.1267 22.0675 65.2761 25.3066 65.2761 29.2976C65.2761 33.2886 62.1267 36.5277 58.2462 36.5277H51.2164V22.0675Z" fill="#FF7262"/>
<path d="M65.2761 43.7578C65.2761 47.7488 62.1267 50.9878 58.2462 50.9878C54.3658 50.9878 51.2164 47.7488 51.2164 43.7578C51.2164 39.7668 54.3658 36.5277 58.2462 36.5277C62.1267 36.5277 65.2761 39.7668 65.2761 43.7578Z" fill="#1ABCFE"/>
<path d="M31.6542 15.6935C31.6542 24.3564 24.5636 31.3871 15.8271 31.3871C7.09054 31.3871 0 24.3564 0 15.6935C0 7.0307 7.09054 0 15.8271 0C24.5636 0 31.6542 7.0307 31.6542 15.6935Z" fill="#1ABCFE"/>
<path d="M12.2717 22.6515H9.30097V13.1945L6.383 14.047V11.797L11.9992 9.85464H12.2717V22.6515ZM17.2171 15.0138H18.6146C19.722 15.0138 20.2757 14.4718 20.2757 13.3878C20.2757 12.966 20.1439 12.6232 19.8802 12.3595C19.6165 12.09 19.2444 11.9552 18.764 11.9552C18.3714 11.9552 18.0286 12.0695 17.7357 12.298C17.4485 12.5265 17.305 12.8107 17.305 13.1505H14.3431C14.3431 12.4767 14.5306 11.8761 14.9056 11.3488C15.2806 10.8214 15.7991 10.4113 16.4612 10.1183C17.1292 9.81949 17.8616 9.67007 18.6585 9.67007C20.0823 9.67007 21.2015 9.99527 22.0159 10.6457C22.8304 11.2961 23.2376 12.1896 23.2376 13.3263C23.2376 13.8771 23.0677 14.3986 22.7278 14.8908C22.3939 15.3771 21.9046 15.7726 21.2601 16.0773C21.9398 16.3234 22.473 16.6984 22.8597 17.2023C23.2464 17.7003 23.4398 18.3185 23.4398 19.0568C23.4398 20.1994 23.0003 21.1134 22.1214 21.799C21.2425 22.4845 20.0882 22.8273 18.6585 22.8273C17.8206 22.8273 17.0413 22.6691 16.3206 22.3527C15.6058 22.0304 15.0638 21.588 14.6946 21.0255C14.3255 20.4572 14.1409 19.8127 14.1409 19.0919H17.1204C17.1204 19.4845 17.2786 19.8244 17.595 20.1115C17.9114 20.3986 18.3011 20.5421 18.764 20.5421C19.2855 20.5421 19.7015 20.3986 20.012 20.1115C20.3226 19.8185 20.4778 19.4464 20.4778 18.9953C20.4778 18.3507 20.3167 17.8937 19.9944 17.6242C19.6722 17.3546 19.2269 17.2199 18.6585 17.2199H17.2171V15.0138Z" fill="white"/>
</svg>
